  0
SECTION
  2
HEADER
  9
$ANGBASE
  50
0.0
  9
$ANGDIR
  70
1
  9
$MEASUREMENT
  70
0
  0
ENDSEC
  0
SECTION
  2
TABLES
  0
TABLE
  2
LTYPE
  70
4
  0
LTYPE
  5
40F
  2
CONTINUOUS
  70
0
  3
Solid line
  72
65
  73
0
  40
0.0
  0
LTYPE
  5
410
  2
DASHDOT
 70
0
  3
Dash Dot ____ _ ____ _
 72
65
 73
4
 40
2.0
 49
1.25
 49
-0.25
 49
0.25
 49
-0.25
  0
LTYPE
  5
411
  2
DASHED
 70
0
  3
Dashed __ __ __ __ __
 72
65
 73
2
 40
0.75
 49
0.5
 49
-0.25
  0
LTYPE
  5
43B
  2
DOTTED
 70
0
  3
Dotted .  .  .  .
 72
65
 73
2
 40
0.2
 49
0.0
 49
-0.2
  0
ENDTAB
  0
TABLE
  2
STYLE
  70
4
  0
STYLE
  2
KICAD
  70
0
  40
0
  41
1
  42
1
  50
0
  71
0
  3
isocp.shx
  0
STYLE
  2
KICADB
  70
0
  40
0
  41
1
  42
1
  50
0
  71
0
  3
isocp.shx
  0
STYLE
  2
KICADI
  70
0
  40
0
  41
1
  42
1
  50
15
  71
0
  3
isocp.shx
  0
STYLE
  2
KICADBI
  70
0
  40
0
  41
1
  42
1
  50
15
  71
0
  3
isocp.shx
  0
ENDTAB
  0
TABLE
  2
LAYER
  70
1
  0
LAYER
  2
BLACK
  70
0
  62
7
  6
CONTINUOUS
  0
ENDTAB
  0
ENDSEC
  0
SECTION
  2
ENTITIES
0
LINE
8
BLACK
6
CONTINUOUS
10
4.4291338582677167
20
-2.9311023622047245
11
4.4396684645669291
21
-2.9317928346456692
0
LINE
8
BLACK
6
CONTINUOUS
10
4.4396684645669291
20
-2.9317928346456692
11
4.4500227952755909
21
-2.9338524409448818
0
LINE
8
BLACK
6
CONTINUOUS
10
4.4500227952755909
20
-2.9338524409448818
11
4.4600197244094488
21
-2.9372459448818895
0
LINE
8
BLACK
6
CONTINUOUS
10
4.4600197244094488
20
-2.9372459448818895
11
4.4694881889763778
21
-2.9419152755905511
0
LINE
8
BLACK
6
CONTINUOUS
10
4.4694881889763778
20
-2.9419152755905511
11
4.4782661811023621
21
-2.9477805511811024
0
LINE
8
BLACK
6
CONTINUOUS
10
4.4782661811023621
20
-2.9477805511811024
11
4.4862035039370074
21
-2.954741377952756
0
LINE
8
BLACK
6
CONTINUOUS
10
4.4862035039370074
20
-2.954741377952756
11
4.4931643307086615
21
-2.9626787007874014
0
LINE
8
BLACK
6
CONTINUOUS
10
4.4931643307086615
20
-2.9626787007874014
11
4.4990296062992128
21
-2.9714566929133857
0
LINE
8
BLACK
6
CONTINUOUS
10
4.4990296062992128
20
-2.9714566929133857
11
4.5036989370078739
21
-2.9809251574803151
0
LINE
8
BLACK
6
CONTINUOUS
10
4.5036989370078739
20
-2.9809251574803151
11
4.5070924409448816
21
-2.990922086614173
0
LINE
8
BLACK
6
CONTINUOUS
10
4.5070924409448816
20
-2.990922086614173
11
4.5091520472440942
21
-3.0012764173228348
0
LINE
8
BLACK
6
CONTINUOUS
10
4.5091520472440942
20
-3.0012764173228348
11
4.5098425196850389
21
-3.0118110236220472
0
LINE
8
BLACK
6
CONTINUOUS
10
4.5098425196850389
20
-3.0118110236220472
11
4.5098425196850389
21
-4.7244094488188972
0
LINE
8
BLACK
6
CONTINUOUS
10
4.5098425196850389
20
-4.7244094488188972
11
4.5091520472440942
21
-4.7349440551181106
0
LINE
8
BLACK
6
CONTINUOUS
10
4.5091520472440942
20
-4.7349440551181106
11
4.5070924409448816
21
-4.7452983858267714
0
LINE
8
BLACK
6
CONTINUOUS
10
4.5070924409448816
20
-4.7452983858267714
11
4.5036989370078739
21
-4.7552953149606294
0
LINE
8
BLACK
6
CONTINUOUS
10
4.5036989370078739
20
-4.7552953149606294
11
4.4990296062992128
21
-4.7647637795275593
0
LINE
8
BLACK
6
CONTINUOUS
10
4.4990296062992128
20
-4.7647637795275593
11
4.4931643307086615
21
-4.7735417716535435
0
LINE
8
BLACK
6
CONTINUOUS
10
4.4931643307086615
20
-4.7735417716535435
11
4.4862035039370074
21
-4.7814790944881889
0
LINE
8
BLACK
6
CONTINUOUS
10
4.4862035039370074
20
-4.7814790944881889
11
4.4782661811023621
21
-4.7884399212598421
0
LINE
8
BLACK
6
CONTINUOUS
10
4.4782661811023621
20
-4.7884399212598421
11
4.4694881889763778
21
-4.7943051968503934
0
LINE
8
BLACK
6
CONTINUOUS
10
4.4694881889763778
20
-4.7943051968503934
11
4.4600197244094488
21
-4.7989745275590554
0
LINE
8
BLACK
6
CONTINUOUS
10
4.4600197244094488
20
-4.7989745275590554
11
4.4500227952755909
21
-4.8023680314960631
0
LINE
8
BLACK
6
CONTINUOUS
10
4.4500227952755909
20
-4.8023680314960631
11
4.4396684645669291
21
-4.8044276377952757
0
LINE
8
BLACK
6
CONTINUOUS
10
4.4396684645669291
20
-4.8044276377952757
11
4.4291338582677167
21
-4.8051181102362204
0
LINE
8
BLACK
6
CONTINUOUS
10
4.4291338582677167
20
-4.8051181102362204
11
2.1653543307086616
21
-4.8051181102362204
0
LINE
8
BLACK
6
CONTINUOUS
10
2.1653543307086616
20
-4.8051181102362204
11
2.1548197244094487
21
-4.8044276377952757
0
LINE
8
BLACK
6
CONTINUOUS
10
2.1548197244094487
20
-4.8044276377952757
11
2.1444653937007874
21
-4.8023680314960631
0
LINE
8
BLACK
6
CONTINUOUS
10
2.1444653937007874
20
-4.8023680314960631
11
2.134468464566929
21
-4.7989745275590554
0
LINE
8
BLACK
6
CONTINUOUS
10
2.134468464566929
20
-4.7989745275590554
11
2.125
21
-4.7943051968503934
0
LINE
8
BLACK
6
CONTINUOUS
10
2.125
20
-4.7943051968503934
11
2.1162220078740157
21
-4.7884399212598421
0
LINE
8
BLACK
6
CONTINUOUS
10
2.1162220078740157
20
-4.7884399212598421
11
2.1082846850393699
21
-4.7814790944881889
0
LINE
8
BLACK
6
CONTINUOUS
10
2.1082846850393699
20
-4.7814790944881889
11
2.1013238582677163
21
-4.7735417716535435
0
LINE
8
BLACK
6
CONTINUOUS
10
2.1013238582677163
20
-4.7735417716535435
11
2.0954585826771654
21
-4.7647637795275593
0
LINE
8
BLACK
6
CONTINUOUS
10
2.0954585826771654
20
-4.7647637795275593
11
2.0907892519685038
21
-4.7552953149606294
0
LINE
8
BLACK
6
CONTINUOUS
10
2.0907892519685038
20
-4.7552953149606294
11
2.0873957480314962
21
-4.7452983858267714
0
LINE
8
BLACK
6
CONTINUOUS
10
2.0873957480314962
20
-4.7452983858267714
11
2.0853361417322835
21
-4.7349440551181106
0
LINE
8
BLACK
6
CONTINUOUS
10
2.0853361417322835
20
-4.7349440551181106
11
2.0846456692913384
21
-4.7244094488188972
0
LINE
8
BLACK
6
CONTINUOUS
10
2.0846456692913384
20
-4.7244094488188972
11
2.084646062992126
21
-4.724408188976378
0
LINE
8
BLACK
6
CONTINUOUS
10
2.084646062992126
20
-4.724408188976378
11
2.0846456692913384
21
-4.7244061811023617
0
LINE
8
BLACK
6
CONTINUOUS
10
2.0846456692913384
20
-4.7244061811023617
11
2.0850446456692913
21
-4.4853679527559054
0
LINE
8
BLACK
6
CONTINUOUS
10
2.0850446456692913
20
-4.4853679527559054
11
2.0848326377952757
21
-4.4851559448818898
0
LINE
8
BLACK
6
CONTINUOUS
10
2.0848326377952757
20
-4.4851559448818898
11
2.0848326377952757
21
-4.4833479921259842
0
LINE
8
BLACK
6
CONTINUOUS
10
2.0848326377952757
20
-4.4833479921259842
11
2.086111062992126
21
-4.4820695669291339
0
LINE
8
BLACK
6
CONTINUOUS
10
2.086111062992126
20
-4.4820695669291339
11
2.0870150393700788
21
-4.4818897637795274
0
LINE
8
BLACK
6
CONTINUOUS
10
2.0870150393700788
20
-4.4818897637795274
11
2.3169362992125984
21
-4.4818897637795274
0
LINE
8
BLACK
6
CONTINUOUS
10
2.3169362992125984
20
-4.4818897637795274
11
2.3169362992125984
21
-4.4291338582677167
0
LINE
8
BLACK
6
CONTINUOUS
10
2.3169362992125984
20
-4.4291338582677167
11
2.3171161023622049
21
-4.4282298818897639
0
LINE
8
BLACK
6
CONTINUOUS
10
2.3171161023622049
20
-4.4282298818897639
11
2.3183945275590552
21
-4.4269514566929136
0
LINE
8
BLACK
6
CONTINUOUS
10
2.3183945275590552
20
-4.4269514566929136
11
2.319298503937008
21
-4.426771653543307
0
LINE
8
BLACK
6
CONTINUOUS
10
2.319298503937008
20
-4.426771653543307
11
2.3405583464566928
21
-4.426771653543307
0
LINE
8
BLACK
6
CONTINUOUS
10
2.3405583464566928
20
-4.426771653543307
11
2.3405583464566928
21
-4.1834645669291337
0
LINE
8
BLACK
6
CONTINUOUS
10
2.3405583464566928
20
-4.1834645669291337
11
2.319298503937008
21
-4.1834645669291337
0
LINE
8
BLACK
6
CONTINUOUS
10
2.319298503937008
20
-4.1834645669291337
11
2.3183945275590552
21
-4.1832847637795272
0
LINE
8
BLACK
6
CONTINUOUS
10
2.3183945275590552
20
-4.1832847637795272
11
2.3171161023622049
21
-4.1820063385826769
0
LINE
8
BLACK
6
CONTINUOUS
10
2.3171161023622049
20
-4.1820063385826769
11
2.3169362992125984
21
-4.1811023622047241
0
LINE
8
BLACK
6
CONTINUOUS
10
2.3169362992125984
20
-4.1811023622047241
11
2.3169362992125984
21
-4.1244094488188976
0
LINE
8
BLACK
6
CONTINUOUS
10
2.3169362992125984
20
-4.1244094488188976
11
2.0870150393700788
21
-4.1244094488188976
0
LINE
8
BLACK
6
CONTINUOUS
10
2.0870150393700788
20
-4.1244094488188976
11
2.086111062992126
21
-4.1242296456692911
0
LINE
8
BLACK
6
CONTINUOUS
10
2.086111062992126
20
-4.1242296456692911
11
2.0848326377952757
21
-4.1229512204724408
0
LINE
8
BLACK
6
CONTINUOUS
10
2.0848326377952757
20
-4.1229512204724408
11
2.0848326377952757
21
-4.1211432677165352
0
LINE
8
BLACK
6
CONTINUOUS
10
2.0848326377952757
20
-4.1211432677165352
11
2.0850470472440943
21
-4.1209288188976378
0
LINE
8
BLACK
6
CONTINUOUS
10
2.0850470472440943
20
-4.1209288188976378
11
2.085228188976378
21
-3.7354322834645668
0
LINE
8
BLACK
6
CONTINUOUS
10
2.085228188976378
20
-3.7354322834645668
11
2.0850148425196848
21
-3.7352189370078741
0
LINE
8
BLACK
6
CONTINUOUS
10
2.0850148425196848
20
-3.7352189370078741
11
2.0850148425196848
21
-3.7334109842519685
0
LINE
8
BLACK
6
CONTINUOUS
10
2.0850148425196848
20
-3.7334109842519685
11
2.0862932677165356
21
-3.7321325590551182
0
LINE
8
BLACK
6
CONTINUOUS
10
2.0862932677165356
20
-3.7321325590551182
11
2.0871972440944879
21
-3.7319527559055117
0
LINE
8
BLACK
6
CONTINUOUS
10
2.0871972440944879
20
-3.7319527559055117
11
2.3171185039370079
21
-3.7319527559055117
0
LINE
8
BLACK
6
CONTINUOUS
10
2.3171185039370079
20
-3.7319527559055117
11
2.3171185039370079
21
-3.6791968503937009
0
LINE
8
BLACK
6
CONTINUOUS
10
2.3171185039370079
20
-3.6791968503937009
11
2.317298307086614
21
-3.6782928740157481
0
LINE
8
BLACK
6
CONTINUOUS
10
2.317298307086614
20
-3.6782928740157481
11
2.3185767322834647
21
-3.6770144488188974
0
LINE
8
BLACK
6
CONTINUOUS
10
2.3185767322834647
20
-3.6770144488188974
11
2.3194807086614171
21
-3.6768346456692913
0
LINE
8
BLACK
6
CONTINUOUS
10
2.3194807086614171
20
-3.6768346456692913
11
2.3407405511811024
21
-3.6768346456692913
0
LINE
8
BLACK
6
CONTINUOUS
10
2.3407405511811024
20
-3.6768346456692913
11
2.3407405511811024
21
-3.433527559055118
0
LINE
8
BLACK
6
CONTINUOUS
10
2.3407405511811024
20
-3.433527559055118
11
2.3194807086614171
21
-3.433527559055118
0
LINE
8
BLACK
6
CONTINUOUS
10
2.3194807086614171
20
-3.433527559055118
11
2.3185767322834647
21
-3.4333477559055119
0
LINE
8
BLACK
6
CONTINUOUS
10
2.3185767322834647
20
-3.4333477559055119
11
2.317298307086614
21
-3.4320693307086612
0
LINE
8
BLACK
6
CONTINUOUS
10
2.317298307086614
20
-3.4320693307086612
11
2.3171185039370079
21
-3.4311653543307088
0
LINE
8
BLACK
6
CONTINUOUS
10
2.3171185039370079
20
-3.4311653543307088
11
2.3171185039370079
21
-3.3744724409448819
0
LINE
8
BLACK
6
CONTINUOUS
10
2.3171185039370079
20
-3.3744724409448819
11
2.0871972440944879
21
-3.3744724409448819
0
LINE
8
BLACK
6
CONTINUOUS
10
2.0871972440944879
20
-3.3744724409448819
11
2.0862932677165356
21
-3.3742926377952753
0
LINE
8
BLACK
6
CONTINUOUS
10
2.0862932677165356
20
-3.3742926377952753
11
2.0850148425196848
21
-3.373014212598425
0
LINE
8
BLACK
6
CONTINUOUS
10
2.0850148425196848
20
-3.373014212598425
11
2.0850148425196848
21
-3.3712062598425194
0
LINE
8
BLACK
6
CONTINUOUS
10
2.0850148425196848
20
-3.3712062598425194
11
2.0852268897637796
21
-3.3709941732283464
0
LINE
8
BLACK
6
CONTINUOUS
10
2.0852268897637796
20
-3.3709941732283464
11
2.0846456692913384
21
-3.0118142125984253
0
LINE
8
BLACK
6
CONTINUOUS
10
2.0846456692913384
20
-3.0118142125984253
11
2.0846460236220472
21
-3.0118122047244094
0
LINE
8
BLACK
6
CONTINUOUS
10
2.0846460236220472
20
-3.0118122047244094
11
2.0846456692913384
21
-3.0118110236220472
0
LINE
8
BLACK
6
CONTINUOUS
10
2.0846456692913384
20
-3.0118110236220472
11
2.0853361417322835
21
-3.0012764173228348
0
LINE
8
BLACK
6
CONTINUOUS
10
2.0853361417322835
20
-3.0012764173228348
11
2.0873957480314962
21
-2.990922086614173
0
LINE
8
BLACK
6
CONTINUOUS
10
2.0873957480314962
20
-2.990922086614173
11
2.0907892519685038
21
-2.9809251574803151
0
LINE
8
BLACK
6
CONTINUOUS
10
2.0907892519685038
20
-2.9809251574803151
11
2.0954585826771654
21
-2.9714566929133857
0
LINE
8
BLACK
6
CONTINUOUS
10
2.0954585826771654
20
-2.9714566929133857
11
2.1013238188976375
21
-2.9626787007874014
0
LINE
8
BLACK
6
CONTINUOUS
10
2.1013238188976375
20
-2.9626787007874014
11
2.1082846850393699
21
-2.954741377952756
0
LINE
8
BLACK
6
CONTINUOUS
10
2.1082846850393699
20
-2.954741377952756
11
2.1162220078740157
21
-2.9477805511811024
0
LINE
8
BLACK
6
CONTINUOUS
10
2.1162220078740157
20
-2.9477805511811024
11
2.1249999606299212
21
-2.9419152755905511
0
LINE
8
BLACK
6
CONTINUOUS
10
2.1249999606299212
20
-2.9419152755905511
11
2.1344684251968502
21
-2.9372459448818895
0
LINE
8
BLACK
6
CONTINUOUS
10
2.1344684251968502
20
-2.9372459448818895
11
2.1444653543307086
21
-2.9338524409448818
0
LINE
8
BLACK
6
CONTINUOUS
10
2.1444653543307086
20
-2.9338524409448818
11
2.1548196850393699
21
-2.9317928346456692
0
LINE
8
BLACK
6
CONTINUOUS
10
2.1548196850393699
20
-2.9317928346456692
11
2.1653542913385828
21
-2.9311023622047245
0
LINE
8
BLACK
6
CONTINUOUS
10
2.1653542913385828
20
-2.9311023622047245
11
4.4291338582677167
21
-2.9311023622047245
0
LINE
8
BLACK
6
CONTINUOUS
10
2.1653542913385828
20
-2.9350393700787403
11
2.160322401574803
21
-2.9350393700787403
0
LINE
8
BLACK
6
CONTINUOUS
10
2.160322401574803
20
-2.9350393700787403
11
2.1503447637795277
21
-2.9363529527559056
0
LINE
8
BLACK
6
CONTINUOUS
10
2.1503447637795277
20
-2.9363529527559056
11
2.1406238976377954
21
-2.9389576771653543
0
LINE
8
BLACK
6
CONTINUOUS
10
2.1406238976377954
20
-2.9389576771653543
11
2.1313262204724408
21
-2.9428088976377951
0
LINE
8
BLACK
6
CONTINUOUS
10
2.1313262204724408
20
-2.9428088976377951
11
2.1226107480314962
21
-2.9478407874015748
0
LINE
8
BLACK
6
CONTINUOUS
10
2.1226107480314962
20
-2.9478407874015748
11
2.1146266535433069
21
-2.9539672047244094
0
LINE
8
BLACK
6
CONTINUOUS
10
2.1146266535433069
20
-2.9539672047244094
11
2.107510472440945
21
-2.961083346456693
0
LINE
8
BLACK
6
CONTINUOUS
10
2.107510472440945
20
-2.961083346456693
11
2.10138405511811
21
-2.9690674803149606
0
LINE
8
BLACK
6
CONTINUOUS
10
2.10138405511811
20
-2.9690674803149606
11
2.0963522047244094
21
-2.9777829527559057
0
LINE
8
BLACK
6
CONTINUOUS
10
2.0963522047244094
20
-2.9777829527559057
11
2.0925009448818899
21
-2.9870806299212598
0
LINE
8
BLACK
6
CONTINUOUS
10
2.0925009448818899
20
-2.9870806299212598
11
2.0898962598425195
21
-2.9968014960629921
0
LINE
8
BLACK
6
CONTINUOUS
10
2.0898962598425195
20
-2.9968014960629921
11
2.0885826771653542
21
-3.0067791338582674
0
LINE
8
BLACK
6
CONTINUOUS
10
2.0885826771653542
20
-3.0067791338582674
11
2.0885826771653542
21
-3.0118078346456691
0
LINE
8
BLACK
6
CONTINUOUS
10
2.0885826771653542
20
-3.0118078346456691
11
2.0891619291338581
21
-3.3697480314960631
0
LINE
8
BLACK
6
CONTINUOUS
10
2.0891619291338581
20
-3.3697480314960631
11
2.3194807086614171
21
-3.3697480314960631
0
LINE
8
BLACK
6
CONTINUOUS
10
2.3194807086614171
20
-3.3697480314960631
11
2.3203846850393699
21
-3.3699278346456691
0
LINE
8
BLACK
6
CONTINUOUS
10
2.3203846850393699
20
-3.3699278346456691
11
2.3216631102362206
21
-3.3712062598425194
0
LINE
8
BLACK
6
CONTINUOUS
10
2.3216631102362206
20
-3.3712062598425194
11
2.3218429133858267
21
-3.3721102362204722
0
LINE
8
BLACK
6
CONTINUOUS
10
2.3218429133858267
20
-3.3721102362204722
11
2.3218429133858267
21
-3.4288031496062992
0
LINE
8
BLACK
6
CONTINUOUS
10
2.3218429133858267
20
-3.4288031496062992
11
2.3431027559055115
21
-3.4288031496062992
0
LINE
8
BLACK
6
CONTINUOUS
10
2.3431027559055115
20
-3.4288031496062992
11
2.3440067322834643
21
-3.4289829527559053
0
LINE
8
BLACK
6
CONTINUOUS
10
2.3440067322834643
20
-3.4289829527559053
11
2.3452851574803151
21
-3.430261377952756
0
LINE
8
BLACK
6
CONTINUOUS
10
2.3452851574803151
20
-3.430261377952756
11
2.3454649606299212
21
-3.4311653543307088
0
LINE
8
BLACK
6
CONTINUOUS
10
2.3454649606299212
20
-3.4311653543307088
11
2.3454649606299212
21
-3.6791968503937009
0
LINE
8
BLACK
6
CONTINUOUS
10
2.3454649606299212
20
-3.6791968503937009
11
2.3452851574803151
21
-3.6801008267716533
0
LINE
8
BLACK
6
CONTINUOUS
10
2.3452851574803151
20
-3.6801008267716533
11
2.3440067322834643
21
-3.681379251968504
0
LINE
8
BLACK
6
CONTINUOUS
10
2.3440067322834643
20
-3.681379251968504
11
2.3431027559055115
21
-3.6815590551181101
0
LINE
8
BLACK
6
CONTINUOUS
10
2.3431027559055115
20
-3.6815590551181101
11
2.3218429133858267
21
-3.6815590551181101
0
LINE
8
BLACK
6
CONTINUOUS
10
2.3218429133858267
20
-3.6815590551181101
11
2.3218429133858267
21
-3.7343149606299213
0
LINE
8
BLACK
6
CONTINUOUS
10
2.3218429133858267
20
-3.7343149606299213
11
2.3216631102362206
21
-3.7352189370078741
0
LINE
8
BLACK
6
CONTINUOUS
10
2.3216631102362206
20
-3.7352189370078741
11
2.3203846850393699
21
-3.7364973622047244
0
LINE
8
BLACK
6
CONTINUOUS
10
2.3203846850393699
20
-3.7364973622047244
11
2.3194807086614171
21
-3.7366771653543305
0
LINE
8
BLACK
6
CONTINUOUS
10
2.3194807086614171
20
-3.7366771653543305
11
2.0891646456692912
21
-3.7366771653543305
0
LINE
8
BLACK
6
CONTINUOUS
10
2.0891646456692912
20
-3.7366771653543305
11
2.0889846456692913
21
-4.1196850393700783
0
LINE
8
BLACK
6
CONTINUOUS
10
2.0889846456692913
20
-4.1196850393700783
11
2.319298503937008
21
-4.1196850393700783
0
LINE
8
BLACK
6
CONTINUOUS
10
2.319298503937008
20
-4.1196850393700783
11
2.3202024803149608
21
-4.1198648425196849
0
LINE
8
BLACK
6
CONTINUOUS
10
2.3202024803149608
20
-4.1198648425196849
11
2.3214809055118111
21
-4.1211432677165352
0
LINE
8
BLACK
6
CONTINUOUS
10
2.3214809055118111
20
-4.1211432677165352
11
2.3216607086614172
21
-4.122047244094488
0
LINE
8
BLACK
6
CONTINUOUS
10
2.3216607086614172
20
-4.122047244094488
11
2.3216607086614172
21
-4.1787401574803145
0
LINE
8
BLACK
6
CONTINUOUS
10
2.3216607086614172
20
-4.1787401574803145
11
2.3429205511811024
21
-4.1787401574803145
0
LINE
8
BLACK
6
CONTINUOUS
10
2.3429205511811024
20
-4.1787401574803145
11
2.3438245275590552
21
-4.178919960629921
0
LINE
8
BLACK
6
CONTINUOUS
10
2.3438245275590552
20
-4.178919960629921
11
2.3451029527559055
21
-4.1801983858267713
0
LINE
8
BLACK
6
CONTINUOUS
10
2.3451029527559055
20
-4.1801983858267713
11
2.3452827559055116
21
-4.1811023622047241
0
LINE
8
BLACK
6
CONTINUOUS
10
2.3452827559055116
20
-4.1811023622047241
11
2.3452827559055116
21
-4.4291338582677167
0
LINE
8
BLACK
6
CONTINUOUS
10
2.3452827559055116
20
-4.4291338582677167
11
2.3451029527559055
21
-4.4300378346456695
0
LINE
8
BLACK
6
CONTINUOUS
10
2.3451029527559055
20
-4.4300378346456695
11
2.3438245275590552
21
-4.4313162598425198
0
LINE
8
BLACK
6
CONTINUOUS
10
2.3438245275590552
20
-4.4313162598425198
11
2.3429205511811024
21
-4.4314960629921263
0
LINE
8
BLACK
6
CONTINUOUS
10
2.3429205511811024
20
-4.4314960629921263
11
2.3216607086614172
21
-4.4314960629921263
0
LINE
8
BLACK
6
CONTINUOUS
10
2.3216607086614172
20
-4.4314960629921263
11
2.3216607086614172
21
-4.484251968503937
0
LINE
8
BLACK
6
CONTINUOUS
10
2.3216607086614172
20
-4.484251968503937
11
2.3214809055118111
21
-4.4851559448818898
0
LINE
8
BLACK
6
CONTINUOUS
10
2.3214809055118111
20
-4.4851559448818898
11
2.3202024803149608
21
-4.4864343700787401
0
LINE
8
BLACK
6
CONTINUOUS
10
2.3202024803149608
20
-4.4864343700787401
11
2.319298503937008
21
-4.4866141732283467
0
LINE
8
BLACK
6
CONTINUOUS
10
2.319298503937008
20
-4.4866141732283467
11
2.0889796062992128
21
-4.4866141732283467
0
LINE
8
BLACK
6
CONTINUOUS
10
2.0889796062992128
20
-4.4866141732283467
11
2.0885826771653542
21
-4.7244094488188972
0
LINE
8
BLACK
6
CONTINUOUS
10
2.0885826771653542
20
-4.7244094488188972
11
2.0885826771653542
21
-4.729441338582677
0
LINE
8
BLACK
6
CONTINUOUS
10
2.0885826771653542
20
-4.729441338582677
11
2.0898962598425195
21
-4.7394189763779524
0
LINE
8
BLACK
6
CONTINUOUS
10
2.0898962598425195
20
-4.7394189763779524
11
2.0925009448818899
21
-4.7491398425196847
0
LINE
8
BLACK
6
CONTINUOUS
10
2.0925009448818899
20
-4.7491398425196847
11
2.0963522047244094
21
-4.7584375196850397
0
LINE
8
BLACK
6
CONTINUOUS
10
2.0963522047244094
20
-4.7584375196850397
11
2.10138405511811
21
-4.7671529921259843
0
LINE
8
BLACK
6
CONTINUOUS
10
2.10138405511811
20
-4.7671529921259843
11
2.1075105118110238
21
-4.7751371259842514
0
LINE
8
BLACK
6
CONTINUOUS
10
2.1075105118110238
20
-4.7751371259842514
11
2.1146266535433069
21
-4.782253267716535
0
LINE
8
BLACK
6
CONTINUOUS
10
2.1146266535433069
20
-4.782253267716535
11
2.1226107874015749
21
-4.7883797244094488
0
LINE
8
BLACK
6
CONTINUOUS
10
2.1226107874015749
20
-4.7883797244094488
11
2.1313262598425196
21
-4.7934115748031498
0
LINE
8
BLACK
6
CONTINUOUS
10
2.1313262598425196
20
-4.7934115748031498
11
2.1406239370078741
21
-4.7972628346456689
0
LINE
8
BLACK
6
CONTINUOUS
10
2.1406239370078741
20
-4.7972628346456689
11
2.1503448031496064
21
-4.7998675196850389
0
LINE
8
BLACK
6
CONTINUOUS
10
2.1503448031496064
20
-4.7998675196850389
11
2.1603224409448818
21
-4.8011811023622046
0
LINE
8
BLACK
6
CONTINUOUS
10
2.1603224409448818
20
-4.8011811023622046
11
2.1653543307086616
21
-4.8011811023622046
0
LINE
8
BLACK
6
CONTINUOUS
10
2.1653543307086616
20
-4.8011811023622046
11
4.4291338582677167
21
-4.8011811023622046
0
LINE
8
BLACK
6
CONTINUOUS
10
4.4291338582677167
20
-4.8011811023622046
11
4.4341657480314955
21
-4.8011811023622046
0
LINE
8
BLACK
6
CONTINUOUS
10
4.4341657480314955
20
-4.8011811023622046
11
4.4441433858267718
21
-4.7998675196850389
0
LINE
8
BLACK
6
CONTINUOUS
10
4.4441433858267718
20
-4.7998675196850389
11
4.4538642519685041
21
-4.7972628346456689
0
LINE
8
BLACK
6
CONTINUOUS
10
4.4538642519685041
20
-4.7972628346456689
11
4.4631619291338582
21
-4.7934115748031498
0
LINE
8
BLACK
6
CONTINUOUS
10
4.4631619291338582
20
-4.7934115748031498
11
4.4718774015748028
21
-4.7883797244094488
0
LINE
8
BLACK
6
CONTINUOUS
10
4.4718774015748028
20
-4.7883797244094488
11
4.4798615354330709
21
-4.782253267716535
0
LINE
8
BLACK
6
CONTINUOUS
10
4.4798615354330709
20
-4.782253267716535
11
4.4869776771653545
21
-4.7751371259842514
0
LINE
8
BLACK
6
CONTINUOUS
10
4.4869776771653545
20
-4.7751371259842514
11
4.4931041338582673
21
-4.7671529921259843
0
LINE
8
BLACK
6
CONTINUOUS
10
4.4931041338582673
20
-4.7671529921259843
11
4.4981359842519684
21
-4.7584375196850397
0
LINE
8
BLACK
6
CONTINUOUS
10
4.4981359842519684
20
-4.7584375196850397
11
4.5019872440944884
21
-4.7491398425196847
0
LINE
8
BLACK
6
CONTINUOUS
10
4.5019872440944884
20
-4.7491398425196847
11
4.5045919291338583
21
-4.7394189763779524
0
LINE
8
BLACK
6
CONTINUOUS
10
4.5045919291338583
20
-4.7394189763779524
11
4.5059055118110232
21
-4.729441338582677
0
LINE
8
BLACK
6
CONTINUOUS
10
4.5059055118110232
20
-4.729441338582677
11
4.5059055118110232
21
-4.7244094488188972
0
LINE
8
BLACK
6
CONTINUOUS
10
4.5059055118110232
20
-4.7244094488188972
11
4.5059055118110232
21
-3.0118110236220472
0
LINE
8
BLACK
6
CONTINUOUS
10
4.5059055118110232
20
-3.0118110236220472
11
4.5059055118110232
21
-3.0067791338582674
0
LINE
8
BLACK
6
CONTINUOUS
10
4.5059055118110232
20
-3.0067791338582674
11
4.5045919291338583
21
-2.9968014960629921
0
LINE
8
BLACK
6
CONTINUOUS
10
4.5045919291338583
20
-2.9968014960629921
11
4.5019872440944884
21
-2.9870806299212598
0
LINE
8
BLACK
6
CONTINUOUS
10
4.5019872440944884
20
-2.9870806299212598
11
4.4981359842519684
21
-2.9777829527559057
0
LINE
8
BLACK
6
CONTINUOUS
10
4.4981359842519684
20
-2.9777829527559057
11
4.4931041338582673
21
-2.9690674803149606
0
LINE
8
BLACK
6
CONTINUOUS
10
4.4931041338582673
20
-2.9690674803149606
11
4.4869776771653545
21
-2.961083346456693
0
LINE
8
BLACK
6
CONTINUOUS
10
4.4869776771653545
20
-2.961083346456693
11
4.4798615354330709
21
-2.9539672047244094
0
LINE
8
BLACK
6
CONTINUOUS
10
4.4798615354330709
20
-2.9539672047244094
11
4.4718774015748028
21
-2.9478407480314961
0
LINE
8
BLACK
6
CONTINUOUS
10
4.4718774015748028
20
-2.9478407480314961
11
4.4631619291338582
21
-2.9428088976377951
0
LINE
8
BLACK
6
CONTINUOUS
10
4.4631619291338582
20
-2.9428088976377951
11
4.4538642519685041
21
-2.9389576377952755
0
LINE
8
BLACK
6
CONTINUOUS
10
4.4538642519685041
20
-2.9389576377952755
11
4.4441433858267718
21
-2.9363529527559056
0
LINE
8
BLACK
6
CONTINUOUS
10
4.4441433858267718
20
-2.9363529527559056
11
4.4341657480314955
21
-2.9350393700787403
0
LINE
8
BLACK
6
CONTINUOUS
10
4.4341657480314955
20
-2.9350393700787403
11
4.4291338582677167
21
-2.9350393700787403
0
LINE
8
BLACK
6
CONTINUOUS
10
4.4291338582677167
20
-2.9350393700787403
11
2.1653542913385828
21
-2.9350393700787403
0
CIRCLE
8
BLACK
10
2.4921259842519685
20
-4.0639763779527556
40
0.0068897637795276
0
CIRCLE
8
BLACK
10
2.4921259842519685
20
-3.9639763779527559
40
0.0068897637795276
0
CIRCLE
8
BLACK
10
2.4921259842519685
20
-3.8639763779527558
40
0.0068897637795276
0
CIRCLE
8
BLACK
10
4.3700787401574805
20
-3.2598425196850394
40
0.0068897637795276
0
CIRCLE
8
BLACK
10
4.3700787401574805
20
-3.3598425196850394
40
0.0068897637795276
0
CIRCLE
8
BLACK
10
4.3700787401574805
20
-3.4598425196850391
40
0.0068897637795276
0
CIRCLE
8
BLACK
10
4.3700787401574805
20
-3.5598425196850392
40
0.0068897637795276
0
CIRCLE
8
BLACK
10
4.3700787401574805
20
-3.6598425196850393
40
0.0068897637795276
0
CIRCLE
8
BLACK
10
4.3700787401574805
20
-3.7598425196850394
40
0.0068897637795276
0
CIRCLE
8
BLACK
10
4.3700787401574805
20
-3.8598425196850394
40
0.0068897637795276
0
CIRCLE
8
BLACK
10
4.3700787401574805
20
-3.9598425196850391
40
0.0068897637795276
0
CIRCLE
8
BLACK
10
4.3700787401574805
20
-4.0598425196850396
40
0.0068897637795276
0
CIRCLE
8
BLACK
10
4.3700787401574805
20
-4.1598425196850393
40
0.0068897637795276
0
CIRCLE
8
BLACK
10
4.3700787401574805
20
-4.2598425196850389
40
0.0068897637795276
0
CIRCLE
8
BLACK
10
4.3700787401574805
20
-4.3598425196850394
40
0.0068897637795276
0
CIRCLE
8
BLACK
10
2.3399677952755904
20
-4.1555118110236222
40
0.0068897637795276
0
CIRCLE
8
BLACK
10
2.3399677952755904
20
-4.4507874015748028
40
0.0068897637795276
0
LINE
8
BLACK
6
CONTINUOUS
10
2.3611793307086613
20
-4.0738111811023625
11
2.3647273622047242
21
-4.0752808267716532
0
LINE
8
BLACK
6
CONTINUOUS
10
2.3647273622047242
20
-4.0752808267716532
11
2.3674428740157478
21
-4.0779963385826772
0
LINE
8
BLACK
6
CONTINUOUS
10
2.3674428740157478
20
-4.0779963385826772
11
2.3689125196850394
21
-4.0815443700787402
0
LINE
8
BLACK
6
CONTINUOUS
10
2.3689125196850394
20
-4.0815443700787402
11
2.3689125196850394
21
-4.0853847637795271
0
LINE
8
BLACK
6
CONTINUOUS
10
2.3689125196850394
20
-4.0853847637795271
11
2.3674428740157478
21
-4.0889327952755901
0
LINE
8
BLACK
6
CONTINUOUS
10
2.3674428740157478
20
-4.0889327952755901
11
2.3647273622047242
21
-4.0916483070866141
0
LINE
8
BLACK
6
CONTINUOUS
10
2.3647273622047242
20
-4.0916483070866141
11
2.3611793307086613
21
-4.0931179527559056
0
LINE
8
BLACK
6
CONTINUOUS
10
2.3611793307086613
20
-4.0931179527559056
11
2.3592591338582678
21
-4.093307086614173
0
LINE
8
BLACK
6
CONTINUOUS
10
2.3592591338582678
20
-4.093307086614173
11
2.3139835433070868
21
-4.093307086614173
0
LINE
8
BLACK
6
CONTINUOUS
10
2.3139835433070868
20
-4.093307086614173
11
2.3120633464566929
21
-4.0931179527559056
0
LINE
8
BLACK
6
CONTINUOUS
10
2.3120633464566929
20
-4.0931179527559056
11
2.3085153149606299
21
-4.0916483070866141
0
LINE
8
BLACK
6
CONTINUOUS
10
2.3085153149606299
20
-4.0916483070866141
11
2.3057998031496063
21
-4.0889327952755901
0
LINE
8
BLACK
6
CONTINUOUS
10
2.3057998031496063
20
-4.0889327952755901
11
2.3043301574803148
21
-4.0853847637795271
0
LINE
8
BLACK
6
CONTINUOUS
10
2.3043301574803148
20
-4.0853847637795271
11
2.3043301574803148
21
-4.0815443700787402
0
LINE
8
BLACK
6
CONTINUOUS
10
2.3043301574803148
20
-4.0815443700787402
11
2.3057998031496063
21
-4.0779963385826772
0
LINE
8
BLACK
6
CONTINUOUS
10
2.3057998031496063
20
-4.0779963385826772
11
2.3085153149606299
21
-4.0752808267716532
0
LINE
8
BLACK
6
CONTINUOUS
10
2.3085153149606299
20
-4.0752808267716532
11
2.3120633464566929
21
-4.0738111811023625
0
LINE
8
BLACK
6
CONTINUOUS
10
2.3120633464566929
20
-4.0738111811023625
11
2.3139835433070868
21
-4.0736220472440943
0
LINE
8
BLACK
6
CONTINUOUS
10
2.3139835433070868
20
-4.0736220472440943
11
2.3592591338582678
21
-4.0736220472440943
0
LINE
8
BLACK
6
CONTINUOUS
10
2.3592591338582678
20
-4.0736220472440943
11
2.3611793307086613
21
-4.0738111811023625
0
LINE
8
BLACK
6
CONTINUOUS
10
2.1773210629921258
20
-4.0738111811023625
11
2.1808690944881888
21
-4.0752808267716532
0
LINE
8
BLACK
6
CONTINUOUS
10
2.1808690944881888
20
-4.0752808267716532
11
2.1835846062992124
21
-4.0779963385826772
0
LINE
8
BLACK
6
CONTINUOUS
10
2.1835846062992124
20
-4.0779963385826772
11
2.1850542519685039
21
-4.0815443700787402
0
LINE
8
BLACK
6
CONTINUOUS
10
2.1850542519685039
20
-4.0815443700787402
11
2.1850542519685039
21
-4.0853847637795271
0
LINE
8
BLACK
6
CONTINUOUS
10
2.1850542519685039
20
-4.0853847637795271
11
2.1835846062992124
21
-4.0889327952755901
0
LINE
8
BLACK
6
CONTINUOUS
10
2.1835846062992124
20
-4.0889327952755901
11
2.1808690944881888
21
-4.0916483070866141
0
LINE
8
BLACK
6
CONTINUOUS
10
2.1808690944881888
20
-4.0916483070866141
11
2.1773210629921258
21
-4.0931179527559056
0
LINE
8
BLACK
6
CONTINUOUS
10
2.1773210629921258
20
-4.0931179527559056
11
2.1754008661417323
21
-4.093307086614173
0
LINE
8
BLACK
6
CONTINUOUS
10
2.1754008661417323
20
-4.093307086614173
11
2.1301252755905513
21
-4.093307086614173
0
LINE
8
BLACK
6
CONTINUOUS
10
2.1301252755905513
20
-4.093307086614173
11
2.1282050787401574
21
-4.0931179527559056
0
LINE
8
BLACK
6
CONTINUOUS
10
2.1282050787401574
20
-4.0931179527559056
11
2.1246570472440944
21
-4.0916483070866141
0
LINE
8
BLACK
6
CONTINUOUS
10
2.1246570472440944
20
-4.0916483070866141
11
2.1219415354330708
21
-4.0889327952755901
0
LINE
8
BLACK
6
CONTINUOUS
10
2.1219415354330708
20
-4.0889327952755901
11
2.1204718897637793
21
-4.0853847637795271
0
LINE
8
BLACK
6
CONTINUOUS
10
2.1204718897637793
20
-4.0853847637795271
11
2.1204718897637793
21
-4.0815443700787402
0
LINE
8
BLACK
6
CONTINUOUS
10
2.1204718897637793
20
-4.0815443700787402
11
2.1219415354330708
21
-4.0779963385826772
0
LINE
8
BLACK
6
CONTINUOUS
10
2.1219415354330708
20
-4.0779963385826772
11
2.1246570472440944
21
-4.0752808267716532
0
LINE
8
BLACK
6
CONTINUOUS
10
2.1246570472440944
20
-4.0752808267716532
11
2.1282050787401574
21
-4.0738111811023625
0
LINE
8
BLACK
6
CONTINUOUS
10
2.1282050787401574
20
-4.0738111811023625
11
2.1301252755905513
21
-4.0736220472440943
0
LINE
8
BLACK
6
CONTINUOUS
10
2.1301252755905513
20
-4.0736220472440943
11
2.1754008661417323
21
-4.0736220472440943
0
LINE
8
BLACK
6
CONTINUOUS
10
2.1754008661417323
20
-4.0736220472440943
11
2.1773210629921258
21
-4.0738111811023625
0
LINE
8
BLACK
6
CONTINUOUS
10
2.3611793307086613
20
-4.5131812598425194
11
2.3647273622047242
21
-4.5146509055118109
0
LINE
8
BLACK
6
CONTINUOUS
10
2.3647273622047242
20
-4.5146509055118109
11
2.3674428740157478
21
-4.5173664173228349
0
LINE
8
BLACK
6
CONTINUOUS
10
2.3674428740157478
20
-4.5173664173228349
11
2.3689125196850394
21
-4.5209144488188979
0
LINE
8
BLACK
6
CONTINUOUS
10
2.3689125196850394
20
-4.5209144488188979
11
2.3689125196850394
21
-4.5247548425196848
0
LINE
8
BLACK
6
CONTINUOUS
10
2.3689125196850394
20
-4.5247548425196848
11
2.3674428740157478
21
-4.5283028740157478
0
LINE
8
BLACK
6
CONTINUOUS
10
2.3674428740157478
20
-4.5283028740157478
11
2.3647273622047242
21
-4.5310183858267719
0
LINE
8
BLACK
6
CONTINUOUS
10
2.3647273622047242
20
-4.5310183858267719
11
2.3611793307086613
21
-4.5324880314960625
0
LINE
8
BLACK
6
CONTINUOUS
10
2.3611793307086613
20
-4.5324880314960625
11
2.3592591338582678
21
-4.5326771653543307
0
LINE
8
BLACK
6
CONTINUOUS
10
2.3592591338582678
20
-4.5326771653543307
11
2.3139835433070868
21
-4.5326771653543307
0
LINE
8
BLACK
6
CONTINUOUS
10
2.3139835433070868
20
-4.5326771653543307
11
2.3120633464566929
21
-4.5324880314960625
0
LINE
8
BLACK
6
CONTINUOUS
10
2.3120633464566929
20
-4.5324880314960625
11
2.3085153149606299
21
-4.5310183858267719
0
LINE
8
BLACK
6
CONTINUOUS
10
2.3085153149606299
20
-4.5310183858267719
11
2.3057998031496063
21
-4.5283028740157478
0
LINE
8
BLACK
6
CONTINUOUS
10
2.3057998031496063
20
-4.5283028740157478
11
2.3043301574803148
21
-4.5247548425196848
0
LINE
8
BLACK
6
CONTINUOUS
10
2.3043301574803148
20
-4.5247548425196848
11
2.3043301574803148
21
-4.5209144488188979
0
LINE
8
BLACK
6
CONTINUOUS
10
2.3043301574803148
20
-4.5209144488188979
11
2.3057998031496063
21
-4.5173664173228349
0
LINE
8
BLACK
6
CONTINUOUS
10
2.3057998031496063
20
-4.5173664173228349
11
2.3085153149606299
21
-4.5146509055118109
0
LINE
8
BLACK
6
CONTINUOUS
10
2.3085153149606299
20
-4.5146509055118109
11
2.3120633464566929
21
-4.5131812598425194
0
LINE
8
BLACK
6
CONTINUOUS
10
2.3120633464566929
20
-4.5131812598425194
11
2.3139835433070868
21
-4.512992125984252
0
LINE
8
BLACK
6
CONTINUOUS
10
2.3139835433070868
20
-4.512992125984252
11
2.3592591338582678
21
-4.512992125984252
0
LINE
8
BLACK
6
CONTINUOUS
10
2.3592591338582678
20
-4.512992125984252
11
2.3611793307086613
21
-4.5131812598425194
0
LINE
8
BLACK
6
CONTINUOUS
10
2.1769273622047245
20
-4.5131812598425194
11
2.1804753937007875
21
-4.5146509055118109
0
LINE
8
BLACK
6
CONTINUOUS
10
2.1804753937007875
20
-4.5146509055118109
11
2.1831909055118111
21
-4.5173664173228349
0
LINE
8
BLACK
6
CONTINUOUS
10
2.1831909055118111
20
-4.5173664173228349
11
2.1846605511811021
21
-4.5209144488188979
0
LINE
8
BLACK
6
CONTINUOUS
10
2.1846605511811021
20
-4.5209144488188979
11
2.1846605511811021
21
-4.5247548425196848
0
LINE
8
BLACK
6
CONTINUOUS
10
2.1846605511811021
20
-4.5247548425196848
11
2.1831909055118111
21
-4.5283028740157478
0
LINE
8
BLACK
6
CONTINUOUS
10
2.1831909055118111
20
-4.5283028740157478
11
2.1804753937007875
21
-4.5310183858267719
0
LINE
8
BLACK
6
CONTINUOUS
10
2.1804753937007875
20
-4.5310183858267719
11
2.1769273622047245
21
-4.5324880314960625
0
LINE
8
BLACK
6
CONTINUOUS
10
2.1769273622047245
20
-4.5324880314960625
11
2.1750071653543306
21
-4.5326771653543307
0
LINE
8
BLACK
6
CONTINUOUS
10
2.1750071653543306
20
-4.5326771653543307
11
2.1297315748031496
21
-4.5326771653543307
0
LINE
8
BLACK
6
CONTINUOUS
10
2.1297315748031496
20
-4.5326771653543307
11
2.1278113779527557
21
-4.5324880314960625
0
LINE
8
BLACK
6
CONTINUOUS
10
2.1278113779527557
20
-4.5324880314960625
11
2.1242633464566927
21
-4.5310183858267719
0
LINE
8
BLACK
6
CONTINUOUS
10
2.1242633464566927
20
-4.5310183858267719
11
2.1215478346456691
21
-4.5283028740157478
0
LINE
8
BLACK
6
CONTINUOUS
10
2.1215478346456691
20
-4.5283028740157478
11
2.120078188976378
21
-4.5247548425196848
0
LINE
8
BLACK
6
CONTINUOUS
10
2.120078188976378
20
-4.5247548425196848
11
2.120078188976378
21
-4.5209144488188979
0
LINE
8
BLACK
6
CONTINUOUS
10
2.120078188976378
20
-4.5209144488188979
11
2.1215478346456691
21
-4.5173664173228349
0
LINE
8
BLACK
6
CONTINUOUS
10
2.1215478346456691
20
-4.5173664173228349
11
2.1242633464566927
21
-4.5146509055118109
0
LINE
8
BLACK
6
CONTINUOUS
10
2.1242633464566927
20
-4.5146509055118109
11
2.1278113779527557
21
-4.5131812598425194
0
LINE
8
BLACK
6
CONTINUOUS
10
2.1278113779527557
20
-4.5131812598425194
11
2.1297315748031496
21
-4.512992125984252
0
LINE
8
BLACK
6
CONTINUOUS
10
2.1297315748031496
20
-4.512992125984252
11
2.1750071653543306
21
-4.512992125984252
0
LINE
8
BLACK
6
CONTINUOUS
10
2.1750071653543306
20
-4.512992125984252
11
2.1769273622047245
21
-4.5131812598425194
0
CIRCLE
8
BLACK
10
2.34015
20
-3.405574803149606
40
0.0068897637795276
0
CIRCLE
8
BLACK
10
2.34015
20
-3.7008503937007875
40
0.0068897637795276
0
LINE
8
BLACK
6
CONTINUOUS
10
2.3613615354330708
20
-3.3238741732283463
11
2.3649095669291338
21
-3.3253438188976379
0
LINE
8
BLACK
6
CONTINUOUS
10
2.3649095669291338
20
-3.3253438188976379
11
2.3676250787401574
21
-3.3280593307086614
0
LINE
8
BLACK
6
CONTINUOUS
10
2.3676250787401574
20
-3.3280593307086614
11
2.3690947244094489
21
-3.3316073622047244
0
LINE
8
BLACK
6
CONTINUOUS
10
2.3690947244094489
20
-3.3316073622047244
11
2.3690947244094489
21
-3.3354477559055118
0
LINE
8
BLACK
6
CONTINUOUS
10
2.3690947244094489
20
-3.3354477559055118
11
2.3676250787401574
21
-3.3389957874015748
0
LINE
8
BLACK
6
CONTINUOUS
10
2.3676250787401574
20
-3.3389957874015748
11
2.3649095669291338
21
-3.3417112992125984
0
LINE
8
BLACK
6
CONTINUOUS
10
2.3649095669291338
20
-3.3417112992125984
11
2.3613615354330708
21
-3.3431809448818899
0
LINE
8
BLACK
6
CONTINUOUS
10
2.3613615354330708
20
-3.3431809448818899
11
2.3594413385826769
21
-3.3433700787401572
0
LINE
8
BLACK
6
CONTINUOUS
10
2.3594413385826769
20
-3.3433700787401572
11
2.3141657480314959
21
-3.3433700787401572
0
LINE
8
BLACK
6
CONTINUOUS
10
2.3141657480314959
20
-3.3433700787401572
11
2.3122455511811024
21
-3.3431809448818899
0
LINE
8
BLACK
6
CONTINUOUS
10
2.3122455511811024
20
-3.3431809448818899
11
2.3086975196850394
21
-3.3417112992125984
0
LINE
8
BLACK
6
CONTINUOUS
10
2.3086975196850394
20
-3.3417112992125984
11
2.3059820078740159
21
-3.3389957874015748
0
LINE
8
BLACK
6
CONTINUOUS
10
2.3059820078740159
20
-3.3389957874015748
11
2.3045123622047243
21
-3.3354477559055118
0
LINE
8
BLACK
6
CONTINUOUS
10
2.3045123622047243
20
-3.3354477559055118
11
2.3045123622047243
21
-3.3316073622047244
0
LINE
8
BLACK
6
CONTINUOUS
10
2.3045123622047243
20
-3.3316073622047244
11
2.3059820078740159
21
-3.3280593307086614
0
LINE
8
BLACK
6
CONTINUOUS
10
2.3059820078740159
20
-3.3280593307086614
11
2.3086975196850394
21
-3.3253438188976379
0
LINE
8
BLACK
6
CONTINUOUS
10
2.3086975196850394
20
-3.3253438188976379
11
2.3122455511811024
21
-3.3238741732283463
0
LINE
8
BLACK
6
CONTINUOUS
10
2.3122455511811024
20
-3.3238741732283463
11
2.3141657480314959
21
-3.3236850393700785
0
LINE
8
BLACK
6
CONTINUOUS
10
2.3141657480314959
20
-3.3236850393700785
11
2.3594413385826769
21
-3.3236850393700785
0
LINE
8
BLACK
6
CONTINUOUS
10
2.3594413385826769
20
-3.3236850393700785
11
2.3613615354330708
21
-3.3238741732283463
0
LINE
8
BLACK
6
CONTINUOUS
10
2.1775032677165354
20
-3.3238741732283463
11
2.1810512992125983
21
-3.3253438188976379
0
LINE
8
BLACK
6
CONTINUOUS
10
2.1810512992125983
20
-3.3253438188976379
11
2.1837668110236219
21
-3.3280593307086614
0
LINE
8
BLACK
6
CONTINUOUS
10
2.1837668110236219
20
-3.3280593307086614
11
2.1852364566929134
21
-3.3316073622047244
0
LINE
8
BLACK
6
CONTINUOUS
10
2.1852364566929134
20
-3.3316073622047244
11
2.1852364566929134
21
-3.3354477559055118
0
LINE
8
BLACK
6
CONTINUOUS
10
2.1852364566929134
20
-3.3354477559055118
11
2.1837668110236219
21
-3.3389957874015748
0
LINE
8
BLACK
6
CONTINUOUS
10
2.1837668110236219
20
-3.3389957874015748
11
2.1810512992125983
21
-3.3417112992125984
0
LINE
8
BLACK
6
CONTINUOUS
10
2.1810512992125983
20
-3.3417112992125984
11
2.1775032677165354
21
-3.3431809448818899
0
LINE
8
BLACK
6
CONTINUOUS
10
2.1775032677165354
20
-3.3431809448818899
11
2.1755830708661419
21
-3.3433700787401572
0
LINE
8
BLACK
6
CONTINUOUS
10
2.1755830708661419
20
-3.3433700787401572
11
2.1303074803149604
21
-3.3433700787401572
0
LINE
8
BLACK
6
CONTINUOUS
10
2.1303074803149604
20
-3.3433700787401572
11
2.128387283464567
21
-3.3431809448818899
0
LINE
8
BLACK
6
CONTINUOUS
10
2.128387283464567
20
-3.3431809448818899
11
2.124839251968504
21
-3.3417112992125984
0
LINE
8
BLACK
6
CONTINUOUS
10
2.124839251968504
20
-3.3417112992125984
11
2.1221237401574804
21
-3.3389957874015748
0
LINE
8
BLACK
6
CONTINUOUS
10
2.1221237401574804
20
-3.3389957874015748
11
2.1206540944881889
21
-3.3354477559055118
0
LINE
8
BLACK
6
CONTINUOUS
10
2.1206540944881889
20
-3.3354477559055118
11
2.1206540944881889
21
-3.3316073622047244
0
LINE
8
BLACK
6
CONTINUOUS
10
2.1206540944881889
20
-3.3316073622047244
11
2.1221237401574804
21
-3.3280593307086614
0
LINE
8
BLACK
6
CONTINUOUS
10
2.1221237401574804
20
-3.3280593307086614
11
2.124839251968504
21
-3.3253438188976379
0
LINE
8
BLACK
6
CONTINUOUS
10
2.124839251968504
20
-3.3253438188976379
11
2.128387283464567
21
-3.3238741732283463
0
LINE
8
BLACK
6
CONTINUOUS
10
2.128387283464567
20
-3.3238741732283463
11
2.1303074803149604
21
-3.3236850393700785
0
LINE
8
BLACK
6
CONTINUOUS
10
2.1303074803149604
20
-3.3236850393700785
11
2.1755830708661419
21
-3.3236850393700785
0
LINE
8
BLACK
6
CONTINUOUS
10
2.1755830708661419
20
-3.3236850393700785
11
2.1775032677165354
21
-3.3238741732283463
0
LINE
8
BLACK
6
CONTINUOUS
10
2.3613615354330708
20
-3.7632442519685037
11
2.3649095669291338
21
-3.7647138976377952
0
LINE
8
BLACK
6
CONTINUOUS
10
2.3649095669291338
20
-3.7647138976377952
11
2.3676250787401574
21
-3.7674294094488188
0
LINE
8
BLACK
6
CONTINUOUS
10
2.3676250787401574
20
-3.7674294094488188
11
2.3690947244094489
21
-3.7709774409448817
0
LINE
8
BLACK
6
CONTINUOUS
10
2.3690947244094489
20
-3.7709774409448817
11
2.3690947244094489
21
-3.7748178346456691
0
LINE
8
BLACK
6
CONTINUOUS
10
2.3690947244094489
20
-3.7748178346456691
11
2.3676250787401574
21
-3.7783658661417321
0
LINE
8
BLACK
6
CONTINUOUS
10
2.3676250787401574
20
-3.7783658661417321
11
2.3649095669291338
21
-3.7810813779527557
0
LINE
8
BLACK
6
CONTINUOUS
10
2.3649095669291338
20
-3.7810813779527557
11
2.3613615354330708
21
-3.7825510236220472
0
LINE
8
BLACK
6
CONTINUOUS
10
2.3613615354330708
20
-3.7825510236220472
11
2.3594413385826769
21
-3.782740157480315
0
LINE
8
BLACK
6
CONTINUOUS
10
2.3594413385826769
20
-3.782740157480315
11
2.3141657480314959
21
-3.782740157480315
0
LINE
8
BLACK
6
CONTINUOUS
10
2.3141657480314959
20
-3.782740157480315
11
2.3122455511811024
21
-3.7825510236220472
0
LINE
8
BLACK
6
CONTINUOUS
10
2.3122455511811024
20
-3.7825510236220472
11
2.3086975196850394
21
-3.7810813779527557
0
LINE
8
BLACK
6
CONTINUOUS
10
2.3086975196850394
20
-3.7810813779527557
11
2.3059820078740159
21
-3.7783658661417321
0
LINE
8
BLACK
6
CONTINUOUS
10
2.3059820078740159
20
-3.7783658661417321
11
2.3045123622047243
21
-3.7748178346456691
0
LINE
8
BLACK
6
CONTINUOUS
10
2.3045123622047243
20
-3.7748178346456691
11
2.3045123622047243
21
-3.7709774409448817
0
LINE
8
BLACK
6
CONTINUOUS
10
2.3045123622047243
20
-3.7709774409448817
11
2.3059820078740159
21
-3.7674294094488188
0
LINE
8
BLACK
6
CONTINUOUS
10
2.3059820078740159
20
-3.7674294094488188
11
2.3086975196850394
21
-3.7647138976377952
0
LINE
8
BLACK
6
CONTINUOUS
10
2.3086975196850394
20
-3.7647138976377952
11
2.3122455511811024
21
-3.7632442519685037
0
LINE
8
BLACK
6
CONTINUOUS
10
2.3122455511811024
20
-3.7632442519685037
11
2.3141657480314959
21
-3.7630551181102363
0
LINE
8
BLACK
6
CONTINUOUS
10
2.3141657480314959
20
-3.7630551181102363
11
2.3594413385826769
21
-3.7630551181102363
0
LINE
8
BLACK
6
CONTINUOUS
10
2.3594413385826769
20
-3.7630551181102363
11
2.3613615354330708
21
-3.7632442519685037
0
LINE
8
BLACK
6
CONTINUOUS
10
2.1771095669291336
20
-3.7632442519685037
11
2.180657598425197
21
-3.7647138976377952
0
LINE
8
BLACK
6
CONTINUOUS
10
2.180657598425197
20
-3.7647138976377952
11
2.1833731102362206
21
-3.7674294094488188
0
LINE
8
BLACK
6
CONTINUOUS
10
2.1833731102362206
20
-3.7674294094488188
11
2.1848427559055117
21
-3.7709774409448817
0
LINE
8
BLACK
6
CONTINUOUS
10
2.1848427559055117
20
-3.7709774409448817
11
2.1848427559055117
21
-3.7748178346456691
0
LINE
8
BLACK
6
CONTINUOUS
10
2.1848427559055117
20
-3.7748178346456691
11
2.1833731102362206
21
-3.7783658661417321
0
LINE
8
BLACK
6
CONTINUOUS
10
2.1833731102362206
20
-3.7783658661417321
11
2.180657598425197
21
-3.7810813779527557
0
LINE
8
BLACK
6
CONTINUOUS
10
2.180657598425197
20
-3.7810813779527557
11
2.1771095669291336
21
-3.7825510236220472
0
LINE
8
BLACK
6
CONTINUOUS
10
2.1771095669291336
20
-3.7825510236220472
11
2.1751893700787401
21
-3.782740157480315
0
LINE
8
BLACK
6
CONTINUOUS
10
2.1751893700787401
20
-3.782740157480315
11
2.1299137795275591
21
-3.782740157480315
0
LINE
8
BLACK
6
CONTINUOUS
10
2.1299137795275591
20
-3.782740157480315
11
2.1279935826771652
21
-3.7825510236220472
0
LINE
8
BLACK
6
CONTINUOUS
10
2.1279935826771652
20
-3.7825510236220472
11
2.1244455511811022
21
-3.7810813779527557
0
LINE
8
BLACK
6
CONTINUOUS
10
2.1244455511811022
20
-3.7810813779527557
11
2.1217300393700786
21
-3.7783658661417321
0
LINE
8
BLACK
6
CONTINUOUS
10
2.1217300393700786
20
-3.7783658661417321
11
2.1202603937007876
21
-3.7748178346456691
0
LINE
8
BLACK
6
CONTINUOUS
10
2.1202603937007876
20
-3.7748178346456691
11
2.1202603937007876
21
-3.7709774409448817
0
LINE
8
BLACK
6
CONTINUOUS
10
2.1202603937007876
20
-3.7709774409448817
11
2.1217300393700786
21
-3.7674294094488188
0
LINE
8
BLACK
6
CONTINUOUS
10
2.1217300393700786
20
-3.7674294094488188
11
2.1244455511811022
21
-3.7647138976377952
0
LINE
8
BLACK
6
CONTINUOUS
10
2.1244455511811022
20
-3.7647138976377952
11
2.1279935826771652
21
-3.7632442519685037
0
LINE
8
BLACK
6
CONTINUOUS
10
2.1279935826771652
20
-3.7632442519685037
11
2.1299137795275591
21
-3.7630551181102363
0
LINE
8
BLACK
6
CONTINUOUS
10
2.1299137795275591
20
-3.7630551181102363
11
2.1751893700787401
21
-3.7630551181102363
0
LINE
8
BLACK
6
CONTINUOUS
10
2.1751893700787401
20
-3.7630551181102363
11
2.1771095669291336
21
-3.7632442519685037
0
CIRCLE
8
BLACK
10
4.3661417322834648
20
-4.6653543307086611
40
0.0068897637795276
0
CIRCLE
8
BLACK
10
4.2661417322834643
20
-4.6653543307086611
40
0.0068897637795276
0
CIRCLE
8
BLACK
10
4.1661417322834646
20
-4.6653543307086611
40
0.0068897637795276
0
CIRCLE
8
BLACK
10
4.0661417322834641
20
-4.6653543307086611
40
0.0068897637795276
0
CIRCLE
8
BLACK
10
3.9661417322834644
20
-4.6653543307086611
40
0.0068897637795276
0
CIRCLE
8
BLACK
10
3.8661417322834644
20
-4.6653543307086611
40
0.0068897637795276
0
CIRCLE
8
BLACK
10
3.7661417322834643
20
-4.6653543307086611
40
0.0068897637795276
0
CIRCLE
8
BLACK
10
3.6661417322834646
20
-4.6653543307086611
40
0.0068897637795276
0
CIRCLE
8
BLACK
10
3.5661417322834645
20
-4.6653543307086611
40
0.0068897637795276
0
CIRCLE
8
BLACK
10
3.4661417322834644
20
-4.6653543307086611
40
0.0068897637795276
0
CIRCLE
8
BLACK
10
3.3661417322834644
20
-4.6653543307086611
40
0.0068897637795276
0
CIRCLE
8
BLACK
10
3.6102362204724407
20
-4.5511811023622046
40
0.0068897637795276
0
CIRCLE
8
BLACK
10
3.276574803149606
20
-4.5196850393700787
40
0.0068897637795276
0
CIRCLE
8
BLACK
10
3.1765748031496064
20
-4.5196850393700787
40
0.0068897637795276
0
CIRCLE
8
BLACK
10
3.0765748031496063
20
-4.5196850393700787
40
0.0068897637795276
0
CIRCLE
8
BLACK
10
3.1968503937007875
20
-4.6653543307086611
40
0.0068897637795276
0
CIRCLE
8
BLACK
10
3.0968503937007874
20
-4.6653543307086611
40
0.0068897637795276
0
CIRCLE
8
BLACK
10
2.9968503937007873
20
-4.6653543307086611
40
0.0068897637795276
0
CIRCLE
8
BLACK
10
2.8968503937007872
20
-4.6653543307086611
40
0.0068897637795276
0
CIRCLE
8
BLACK
10
2.7968503937007871
20
-4.6653543307086611
40
0.0068897637795276
0
CIRCLE
8
BLACK
10
2.6968503937007875
20
-4.6653543307086611
40
0.0068897637795276
0
CIRCLE
8
BLACK
10
2.5968503937007874
20
-4.6653543307086611
40
0.0068897637795276
0
CIRCLE
8
BLACK
10
2.4968503937007873
20
-4.6653543307086611
40
0.0068897637795276
0
CIRCLE
8
BLACK
10
2.3968503937007872
20
-4.6653543307086611
40
0.0068897637795276
0
CIRCLE
8
BLACK
10
2.2968503937007871
20
-4.6653543307086611
40
0.0068897637795276
0
CIRCLE
8
BLACK
10
2.1968503937007875
20
-4.6653543307086611
40
0.0068897637795276
0
CIRCLE
8
BLACK
10
4.0394160236220475
20
-4.497047244094488
40
0.0068897637795276
0
CIRCLE
8
BLACK
10
4.0394160236220475
20
-4.4470472440944881
40
0.0068897637795276
0
CIRCLE
8
BLACK
10
4.0394160236220475
20
-4.3970472440944883
40
0.0068897637795276
0
CIRCLE
8
BLACK
10
4.0394160236220475
20
-4.3470472440944885
40
0.0068897637795276
0
CIRCLE
8
BLACK
10
4.0394160236220475
20
-4.2970472440944878
40
0.0068897637795276
0
CIRCLE
8
BLACK
10
4.0394160236220475
20
-4.247047244094488
40
0.0068897637795276
0
CIRCLE
8
BLACK
10
4.0394160236220475
20
-4.1970472440944881
40
0.0068897637795276
0
CIRCLE
8
BLACK
10
3.1968503937007875
20
-3.0708661417322833
40
0.0068897637795276
0
CIRCLE
8
BLACK
10
3.0968503937007874
20
-3.0708661417322833
40
0.0068897637795276
0
CIRCLE
8
BLACK
10
2.9968503937007873
20
-3.0708661417322833
40
0.0068897637795276
0
CIRCLE
8
BLACK
10
2.8968503937007872
20
-3.0708661417322833
40
0.0068897637795276
0
CIRCLE
8
BLACK
10
2.7968503937007871
20
-3.0708661417322833
40
0.0068897637795276
0
CIRCLE
8
BLACK
10
2.6968503937007875
20
-3.0708661417322833
40
0.0068897637795276
0
CIRCLE
8
BLACK
10
2.5968503937007874
20
-3.0708661417322833
40
0.0068897637795276
0
CIRCLE
8
BLACK
10
2.4968503937007873
20
-3.0708661417322833
40
0.0068897637795276
0
CIRCLE
8
BLACK
10
2.3968503937007872
20
-3.0708661417322833
40
0.0068897637795276
0
CIRCLE
8
BLACK
10
2.2968503937007871
20
-3.0708661417322833
40
0.0068897637795276
0
CIRCLE
8
BLACK
10
2.1968503937007875
20
-3.0708661417322833
40
0.0068897637795276
0
CIRCLE
8
BLACK
10
4.3582677165354333
20
-3.0708661417322833
40
0.0068897637795276
0
CIRCLE
8
BLACK
10
4.2582677165354328
20
-3.0708661417322833
40
0.0068897637795276
0
CIRCLE
8
BLACK
10
4.1582677165354331
20
-3.0708661417322833
40
0.0068897637795276
0
CIRCLE
8
BLACK
10
4.0582677165354326
20
-3.0708661417322833
40
0.0068897637795276
0
CIRCLE
8
BLACK
10
3.958267716535433
20
-3.0708661417322833
40
0.0068897637795276
0
CIRCLE
8
BLACK
10
3.8582677165354329
20
-3.0708661417322833
40
0.0068897637795276
0
CIRCLE
8
BLACK
10
3.7582677165354328
20
-3.0708661417322833
40
0.0068897637795276
0
CIRCLE
8
BLACK
10
3.6582677165354331
20
-3.0708661417322833
40
0.0068897637795276
0
CIRCLE
8
BLACK
10
3.5582677165354331
20
-3.0708661417322833
40
0.0068897637795276
0
CIRCLE
8
BLACK
10
3.458267716535433
20
-3.0708661417322833
40
0.0068897637795276
0
CIRCLE
8
BLACK
10
3.3582677165354329
20
-3.0708661417322833
40
0.0068897637795276
  0
ENDSEC
  0
EOF
