  0
SECTION
  2
HEADER
  9
$ANGBASE
  50
0.0
  9
$ANGDIR
  70
1
  9
$MEASUREMENT
  70
0
  0
ENDSEC
  0
SECTION
  2
TABLES
  0
TABLE
  2
LTYPE
  70
4
  0
LTYPE
  5
40F
  2
CONTINUOUS
  70
0
  3
Solid line
  72
65
  73
0
  40
0.0
  0
LTYPE
  5
410
  2
DASHDOT
 70
0
  3
Dash Dot ____ _ ____ _
 72
65
 73
4
 40
2.0
 49
1.25
 49
-0.25
 49
0.25
 49
-0.25
  0
LTYPE
  5
411
  2
DASHED
 70
0
  3
Dashed __ __ __ __ __
 72
65
 73
2
 40
0.75
 49
0.5
 49
-0.25
  0
LTYPE
  5
43B
  2
DOTTED
 70
0
  3
Dotted .  .  .  .
 72
65
 73
2
 40
0.2
 49
0.0
 49
-0.2
  0
ENDTAB
  0
TABLE
  2
STYLE
  70
4
  0
STYLE
  2
KICAD
  70
0
  40
0
  41
1
  42
1
  50
0
  71
0
  3
isocp.shx
  0
STYLE
  2
KICADB
  70
0
  40
0
  41
1
  42
1
  50
0
  71
0
  3
isocp.shx
  0
STYLE
  2
KICADI
  70
0
  40
0
  41
1
  42
1
  50
15
  71
0
  3
isocp.shx
  0
STYLE
  2
KICADBI
  70
0
  40
0
  41
1
  42
1
  50
15
  71
0
  3
isocp.shx
  0
ENDTAB
  0
TABLE
  2
LAYER
  70
1
  0
LAYER
  2
BLACK
  70
0
  62
7
  6
CONTINUOUS
  0
ENDTAB
  0
ENDSEC
  0
SECTION
  2
ENTITIES
0
LINE
8
BLACK
6
CONTINUOUS
10
3.3287588976377953
20
-4.2712348818897636
11
3.3336542913385827
21
-4.2740612598425196
0
LINE
8
BLACK
6
CONTINUOUS
10
3.3336542913385827
20
-4.2740612598425196
11
3.3376513385826772
21
-4.2780583070866145
0
LINE
8
BLACK
6
CONTINUOUS
10
3.3376513385826772
20
-4.2780583070866145
11
3.3404777165354331
21
-4.2829537007874015
0
LINE
8
BLACK
6
CONTINUOUS
10
3.3404777165354331
20
-4.2829537007874015
11
3.341940748031496
21
-4.288413818897638
0
LINE
8
BLACK
6
CONTINUOUS
10
3.341940748031496
20
-4.288413818897638
11
3.341940748031496
21
-4.2940664960629924
0
LINE
8
BLACK
6
CONTINUOUS
10
3.341940748031496
20
-4.2940664960629924
11
3.3404777165354331
21
-4.299526614173228
0
LINE
8
BLACK
6
CONTINUOUS
10
3.3404777165354331
20
-4.299526614173228
11
3.3376513385826772
21
-4.3044220078740159
0
LINE
8
BLACK
6
CONTINUOUS
10
3.3376513385826772
20
-4.3044220078740159
11
3.3336542913385827
21
-4.3084190551181099
0
LINE
8
BLACK
6
CONTINUOUS
10
3.3336542913385827
20
-4.3084190551181099
11
3.3287588976377953
21
-4.3112454330708658
0
LINE
8
BLACK
6
CONTINUOUS
10
3.3287588976377953
20
-4.3112454330708658
11
3.3232987795275588
21
-4.3127084645669287
0
LINE
8
BLACK
6
CONTINUOUS
10
3.3232987795275588
20
-4.3127084645669287
11
3.3176461023622048
21
-4.3127084645669287
0
LINE
8
BLACK
6
CONTINUOUS
10
3.3176461023622048
20
-4.3127084645669287
11
3.3121859842519683
21
-4.3112454330708658
0
LINE
8
BLACK
6
CONTINUOUS
10
3.3121859842519683
20
-4.3112454330708658
11
3.3072905905511809
21
-4.3084190551181099
0
LINE
8
BLACK
6
CONTINUOUS
10
3.3072905905511809
20
-4.3084190551181099
11
3.3032935433070865
21
-4.3044220078740159
0
LINE
8
BLACK
6
CONTINUOUS
10
3.3032935433070865
20
-4.3044220078740159
11
3.3004671653543305
21
-4.299526614173228
0
LINE
8
BLACK
6
CONTINUOUS
10
3.3004671653543305
20
-4.299526614173228
11
3.2990041338582676
21
-4.2940664960629924
0
LINE
8
BLACK
6
CONTINUOUS
10
3.2990041338582676
20
-4.2940664960629924
11
3.2990041338582676
21
-4.2889077165354328
0
LINE
8
BLACK
6
CONTINUOUS
10
3.2990041338582676
20
-4.2889077165354328
11
3.2990041338582676
21
-4.288413818897638
0
LINE
8
BLACK
6
CONTINUOUS
10
3.2990041338582676
20
-4.288413818897638
11
3.3004671653543305
21
-4.2829537007874015
0
LINE
8
BLACK
6
CONTINUOUS
10
3.3004671653543305
20
-4.2829537007874015
11
3.3032935433070865
21
-4.2780583070866145
0
LINE
8
BLACK
6
CONTINUOUS
10
3.3032935433070865
20
-4.2780583070866145
11
3.3072905905511809
21
-4.2740612598425196
0
LINE
8
BLACK
6
CONTINUOUS
10
3.3072905905511809
20
-4.2740612598425196
11
3.3121859842519683
21
-4.2712348818897636
0
LINE
8
BLACK
6
CONTINUOUS
10
3.3121859842519683
20
-4.2712348818897636
11
3.3176461023622048
21
-4.2697718503937008
0
LINE
8
BLACK
6
CONTINUOUS
10
3.3176461023622048
20
-4.2697718503937008
11
3.3232987795275588
21
-4.2697718503937008
0
LINE
8
BLACK
6
CONTINUOUS
10
3.3232987795275588
20
-4.2697718503937008
11
3.3287588976377953
21
-4.2712348818897636
0
LINE
8
BLACK
6
CONTINUOUS
10
3.3204724015748033
20
-4.2912401574803152
11
3.320472440944882
21
-4.2912401968503939
0
LINE
8
BLACK
6
CONTINUOUS
10
3.320472440944882
20
-4.2912401968503939
11
3.3204724803149603
21
-4.2912401574803152
0
LINE
8
BLACK
6
CONTINUOUS
10
3.3204724803149603
20
-4.2912401574803152
11
3.320472440944882
21
-4.2912401181102364
0
LINE
8
BLACK
6
CONTINUOUS
10
3.320472440944882
20
-4.2912401181102364
11
3.3204724015748033
21
-4.2912401574803152
0
LINE
8
BLACK
6
CONTINUOUS
10
3.3716099606299212
20
-3.909139094488189
11
3.3743254724409448
21
-3.9118546062992126
0
LINE
8
BLACK
6
CONTINUOUS
10
3.3743254724409448
20
-3.9118546062992126
11
3.3757951181102364
21
-3.9154026377952755
0
LINE
8
BLACK
6
CONTINUOUS
10
3.3757951181102364
20
-3.9154026377952755
11
3.3757951181102364
21
-3.9192430314960629
0
LINE
8
BLACK
6
CONTINUOUS
10
3.3757951181102364
20
-3.9192430314960629
11
3.3743254724409448
21
-3.9227910629921259
0
LINE
8
BLACK
6
CONTINUOUS
10
3.3743254724409448
20
-3.9227910629921259
11
3.3716099606299212
21
-3.9255065748031495
0
LINE
8
BLACK
6
CONTINUOUS
10
3.3716099606299212
20
-3.9255065748031495
11
3.3680619291338583
21
-3.926976220472441
0
LINE
8
BLACK
6
CONTINUOUS
10
3.3680619291338583
20
-3.926976220472441
11
3.3642215354330709
21
-3.926976220472441
0
LINE
8
BLACK
6
CONTINUOUS
10
3.3642215354330709
20
-3.926976220472441
11
3.3606735039370079
21
-3.9255065748031495
0
LINE
8
BLACK
6
CONTINUOUS
10
3.3606735039370079
20
-3.9255065748031495
11
3.3579579921259843
21
-3.9227910629921259
0
LINE
8
BLACK
6
CONTINUOUS
10
3.3579579921259843
20
-3.9227910629921259
11
3.3564883464566928
21
-3.9192430314960629
0
LINE
8
BLACK
6
CONTINUOUS
10
3.3564883464566928
20
-3.9192430314960629
11
3.3564883464566928
21
-3.9161481496062991
0
LINE
8
BLACK
6
CONTINUOUS
10
3.3564883464566928
20
-3.9161481496062991
11
3.3564883464566928
21
-3.9154026377952755
0
LINE
8
BLACK
6
CONTINUOUS
10
3.3564883464566928
20
-3.9154026377952755
11
3.3579579921259843
21
-3.9118546062992126
0
LINE
8
BLACK
6
CONTINUOUS
10
3.3579579921259843
20
-3.9118546062992126
11
3.3606735039370079
21
-3.909139094488189
0
LINE
8
BLACK
6
CONTINUOUS
10
3.3606735039370079
20
-3.909139094488189
11
3.3642215354330709
21
-3.9076694488188974
0
LINE
8
BLACK
6
CONTINUOUS
10
3.3642215354330709
20
-3.9076694488188974
11
3.3680619291338583
21
-3.9076694488188974
0
LINE
8
BLACK
6
CONTINUOUS
10
3.3680619291338583
20
-3.9076694488188974
11
3.3716099606299212
21
-3.909139094488189
0
LINE
8
BLACK
6
CONTINUOUS
10
3.3661416929133856
20
-3.917322834645669
11
3.3661417322834644
21
-3.9173228740157477
0
LINE
8
BLACK
6
CONTINUOUS
10
3.3661417322834644
20
-3.9173228740157477
11
3.3661417716535431
21
-3.917322834645669
0
LINE
8
BLACK
6
CONTINUOUS
10
3.3661417716535431
20
-3.917322834645669
11
3.3661417322834644
21
-3.9173227952755902
0
LINE
8
BLACK
6
CONTINUOUS
10
3.3661417322834644
20
-3.9173227952755902
11
3.3661416929133856
21
-3.917322834645669
  0
ENDSEC
  0
EOF
