  0
SECTION
  2
HEADER
  9
$ANGBASE
  50
0.0
  9
$ANGDIR
  70
1
  9
$MEASUREMENT
  70
0
  0
ENDSEC
  0
SECTION
  2
TABLES
  0
TABLE
  2
LTYPE
  70
4
  0
LTYPE
  5
40F
  2
CONTINUOUS
  70
0
  3
Solid line
  72
65
  73
0
  40
0.0
  0
LTYPE
  5
410
  2
DASHDOT
 70
0
  3
Dash Dot ____ _ ____ _
 72
65
 73
4
 40
2.0
 49
1.25
 49
-0.25
 49
0.25
 49
-0.25
  0
LTYPE
  5
411
  2
DASHED
 70
0
  3
Dashed __ __ __ __ __
 72
65
 73
2
 40
0.75
 49
0.5
 49
-0.25
  0
LTYPE
  5
43B
  2
DOTTED
 70
0
  3
Dotted .  .  .  .
 72
65
 73
2
 40
0.2
 49
0.0
 49
-0.2
  0
ENDTAB
  0
TABLE
  2
STYLE
  70
4
  0
STYLE
  2
KICAD
  70
0
  40
0
  41
1
  42
1
  50
0
  71
0
  3
isocp.shx
  0
STYLE
  2
KICADB
  70
0
  40
0
  41
1
  42
1
  50
0
  71
0
  3
isocp.shx
  0
STYLE
  2
KICADI
  70
0
  40
0
  41
1
  42
1
  50
15
  71
0
  3
isocp.shx
  0
STYLE
  2
KICADBI
  70
0
  40
0
  41
1
  42
1
  50
15
  71
0
  3
isocp.shx
  0
ENDTAB
  0
TABLE
  2
LAYER
  70
1
  0
LAYER
  2
BLACK
  70
0
  62
7
  6
CONTINUOUS
  0
ENDTAB
  0
ENDSEC
  0
SECTION
  2
ENTITIES
0
CIRCLE
8
BLACK
10
2.4921259842519685
20
-4.0639763779527556
40
0.0068897637795276
0
CIRCLE
8
BLACK
10
2.4921259842519685
20
-3.9639763779527559
40
0.0068897637795276
0
CIRCLE
8
BLACK
10
2.4921259842519685
20
-3.8639763779527558
40
0.0068897637795276
0
CIRCLE
8
BLACK
10
4.3700787401574805
20
-3.2598425196850394
40
0.0068897637795276
0
CIRCLE
8
BLACK
10
4.3700787401574805
20
-3.3598425196850394
40
0.0068897637795276
0
CIRCLE
8
BLACK
10
4.3700787401574805
20
-3.4598425196850391
40
0.0068897637795276
0
CIRCLE
8
BLACK
10
4.3700787401574805
20
-3.5598425196850392
40
0.0068897637795276
0
CIRCLE
8
BLACK
10
4.3700787401574805
20
-3.6598425196850393
40
0.0068897637795276
0
CIRCLE
8
BLACK
10
4.3700787401574805
20
-3.7598425196850394
40
0.0068897637795276
0
CIRCLE
8
BLACK
10
4.3700787401574805
20
-3.8598425196850394
40
0.0068897637795276
0
CIRCLE
8
BLACK
10
4.3700787401574805
20
-3.9598425196850391
40
0.0068897637795276
0
CIRCLE
8
BLACK
10
4.3700787401574805
20
-4.0598425196850396
40
0.0068897637795276
0
CIRCLE
8
BLACK
10
4.3700787401574805
20
-4.1598425196850393
40
0.0068897637795276
0
CIRCLE
8
BLACK
10
4.3700787401574805
20
-4.2598425196850389
40
0.0068897637795276
0
CIRCLE
8
BLACK
10
4.3700787401574805
20
-4.3598425196850394
40
0.0068897637795276
0
CIRCLE
8
BLACK
10
2.3399677952755904
20
-4.1555118110236222
40
0.0068897637795276
0
CIRCLE
8
BLACK
10
2.3399677952755904
20
-4.4507874015748028
40
0.0068897637795276
0
LINE
8
BLACK
6
CONTINUOUS
10
2.3611793307086613
20
-4.0738111811023625
11
2.3647273622047242
21
-4.0752808267716532
0
LINE
8
BLACK
6
CONTINUOUS
10
2.3647273622047242
20
-4.0752808267716532
11
2.3674428740157478
21
-4.0779963385826772
0
LINE
8
BLACK
6
CONTINUOUS
10
2.3674428740157478
20
-4.0779963385826772
11
2.3689125196850394
21
-4.0815443700787402
0
LINE
8
BLACK
6
CONTINUOUS
10
2.3689125196850394
20
-4.0815443700787402
11
2.3689125196850394
21
-4.0853847637795271
0
LINE
8
BLACK
6
CONTINUOUS
10
2.3689125196850394
20
-4.0853847637795271
11
2.3674428740157478
21
-4.0889327952755901
0
LINE
8
BLACK
6
CONTINUOUS
10
2.3674428740157478
20
-4.0889327952755901
11
2.3647273622047242
21
-4.0916483070866141
0
LINE
8
BLACK
6
CONTINUOUS
10
2.3647273622047242
20
-4.0916483070866141
11
2.3611793307086613
21
-4.0931179527559056
0
LINE
8
BLACK
6
CONTINUOUS
10
2.3611793307086613
20
-4.0931179527559056
11
2.3592591338582678
21
-4.093307086614173
0
LINE
8
BLACK
6
CONTINUOUS
10
2.3592591338582678
20
-4.093307086614173
11
2.3139835433070868
21
-4.093307086614173
0
LINE
8
BLACK
6
CONTINUOUS
10
2.3139835433070868
20
-4.093307086614173
11
2.3120633464566929
21
-4.0931179527559056
0
LINE
8
BLACK
6
CONTINUOUS
10
2.3120633464566929
20
-4.0931179527559056
11
2.3085153149606299
21
-4.0916483070866141
0
LINE
8
BLACK
6
CONTINUOUS
10
2.3085153149606299
20
-4.0916483070866141
11
2.3057998031496063
21
-4.0889327952755901
0
LINE
8
BLACK
6
CONTINUOUS
10
2.3057998031496063
20
-4.0889327952755901
11
2.3043301574803148
21
-4.0853847637795271
0
LINE
8
BLACK
6
CONTINUOUS
10
2.3043301574803148
20
-4.0853847637795271
11
2.3043301574803148
21
-4.0815443700787402
0
LINE
8
BLACK
6
CONTINUOUS
10
2.3043301574803148
20
-4.0815443700787402
11
2.3057998031496063
21
-4.0779963385826772
0
LINE
8
BLACK
6
CONTINUOUS
10
2.3057998031496063
20
-4.0779963385826772
11
2.3085153149606299
21
-4.0752808267716532
0
LINE
8
BLACK
6
CONTINUOUS
10
2.3085153149606299
20
-4.0752808267716532
11
2.3120633464566929
21
-4.0738111811023625
0
LINE
8
BLACK
6
CONTINUOUS
10
2.3120633464566929
20
-4.0738111811023625
11
2.3139835433070868
21
-4.0736220472440943
0
LINE
8
BLACK
6
CONTINUOUS
10
2.3139835433070868
20
-4.0736220472440943
11
2.3592591338582678
21
-4.0736220472440943
0
LINE
8
BLACK
6
CONTINUOUS
10
2.3592591338582678
20
-4.0736220472440943
11
2.3611793307086613
21
-4.0738111811023625
0
LINE
8
BLACK
6
CONTINUOUS
10
2.1773210629921258
20
-4.0738111811023625
11
2.1808690944881888
21
-4.0752808267716532
0
LINE
8
BLACK
6
CONTINUOUS
10
2.1808690944881888
20
-4.0752808267716532
11
2.1835846062992124
21
-4.0779963385826772
0
LINE
8
BLACK
6
CONTINUOUS
10
2.1835846062992124
20
-4.0779963385826772
11
2.1850542519685039
21
-4.0815443700787402
0
LINE
8
BLACK
6
CONTINUOUS
10
2.1850542519685039
20
-4.0815443700787402
11
2.1850542519685039
21
-4.0853847637795271
0
LINE
8
BLACK
6
CONTINUOUS
10
2.1850542519685039
20
-4.0853847637795271
11
2.1835846062992124
21
-4.0889327952755901
0
LINE
8
BLACK
6
CONTINUOUS
10
2.1835846062992124
20
-4.0889327952755901
11
2.1808690944881888
21
-4.0916483070866141
0
LINE
8
BLACK
6
CONTINUOUS
10
2.1808690944881888
20
-4.0916483070866141
11
2.1773210629921258
21
-4.0931179527559056
0
LINE
8
BLACK
6
CONTINUOUS
10
2.1773210629921258
20
-4.0931179527559056
11
2.1754008661417323
21
-4.093307086614173
0
LINE
8
BLACK
6
CONTINUOUS
10
2.1754008661417323
20
-4.093307086614173
11
2.1301252755905513
21
-4.093307086614173
0
LINE
8
BLACK
6
CONTINUOUS
10
2.1301252755905513
20
-4.093307086614173
11
2.1282050787401574
21
-4.0931179527559056
0
LINE
8
BLACK
6
CONTINUOUS
10
2.1282050787401574
20
-4.0931179527559056
11
2.1246570472440944
21
-4.0916483070866141
0
LINE
8
BLACK
6
CONTINUOUS
10
2.1246570472440944
20
-4.0916483070866141
11
2.1219415354330708
21
-4.0889327952755901
0
LINE
8
BLACK
6
CONTINUOUS
10
2.1219415354330708
20
-4.0889327952755901
11
2.1204718897637793
21
-4.0853847637795271
0
LINE
8
BLACK
6
CONTINUOUS
10
2.1204718897637793
20
-4.0853847637795271
11
2.1204718897637793
21
-4.0815443700787402
0
LINE
8
BLACK
6
CONTINUOUS
10
2.1204718897637793
20
-4.0815443700787402
11
2.1219415354330708
21
-4.0779963385826772
0
LINE
8
BLACK
6
CONTINUOUS
10
2.1219415354330708
20
-4.0779963385826772
11
2.1246570472440944
21
-4.0752808267716532
0
LINE
8
BLACK
6
CONTINUOUS
10
2.1246570472440944
20
-4.0752808267716532
11
2.1282050787401574
21
-4.0738111811023625
0
LINE
8
BLACK
6
CONTINUOUS
10
2.1282050787401574
20
-4.0738111811023625
11
2.1301252755905513
21
-4.0736220472440943
0
LINE
8
BLACK
6
CONTINUOUS
10
2.1301252755905513
20
-4.0736220472440943
11
2.1754008661417323
21
-4.0736220472440943
0
LINE
8
BLACK
6
CONTINUOUS
10
2.1754008661417323
20
-4.0736220472440943
11
2.1773210629921258
21
-4.0738111811023625
0
LINE
8
BLACK
6
CONTINUOUS
10
2.3611793307086613
20
-4.5131812598425194
11
2.3647273622047242
21
-4.5146509055118109
0
LINE
8
BLACK
6
CONTINUOUS
10
2.3647273622047242
20
-4.5146509055118109
11
2.3674428740157478
21
-4.5173664173228349
0
LINE
8
BLACK
6
CONTINUOUS
10
2.3674428740157478
20
-4.5173664173228349
11
2.3689125196850394
21
-4.5209144488188979
0
LINE
8
BLACK
6
CONTINUOUS
10
2.3689125196850394
20
-4.5209144488188979
11
2.3689125196850394
21
-4.5247548425196848
0
LINE
8
BLACK
6
CONTINUOUS
10
2.3689125196850394
20
-4.5247548425196848
11
2.3674428740157478
21
-4.5283028740157478
0
LINE
8
BLACK
6
CONTINUOUS
10
2.3674428740157478
20
-4.5283028740157478
11
2.3647273622047242
21
-4.5310183858267719
0
LINE
8
BLACK
6
CONTINUOUS
10
2.3647273622047242
20
-4.5310183858267719
11
2.3611793307086613
21
-4.5324880314960625
0
LINE
8
BLACK
6
CONTINUOUS
10
2.3611793307086613
20
-4.5324880314960625
11
2.3592591338582678
21
-4.5326771653543307
0
LINE
8
BLACK
6
CONTINUOUS
10
2.3592591338582678
20
-4.5326771653543307
11
2.3139835433070868
21
-4.5326771653543307
0
LINE
8
BLACK
6
CONTINUOUS
10
2.3139835433070868
20
-4.5326771653543307
11
2.3120633464566929
21
-4.5324880314960625
0
LINE
8
BLACK
6
CONTINUOUS
10
2.3120633464566929
20
-4.5324880314960625
11
2.3085153149606299
21
-4.5310183858267719
0
LINE
8
BLACK
6
CONTINUOUS
10
2.3085153149606299
20
-4.5310183858267719
11
2.3057998031496063
21
-4.5283028740157478
0
LINE
8
BLACK
6
CONTINUOUS
10
2.3057998031496063
20
-4.5283028740157478
11
2.3043301574803148
21
-4.5247548425196848
0
LINE
8
BLACK
6
CONTINUOUS
10
2.3043301574803148
20
-4.5247548425196848
11
2.3043301574803148
21
-4.5209144488188979
0
LINE
8
BLACK
6
CONTINUOUS
10
2.3043301574803148
20
-4.5209144488188979
11
2.3057998031496063
21
-4.5173664173228349
0
LINE
8
BLACK
6
CONTINUOUS
10
2.3057998031496063
20
-4.5173664173228349
11
2.3085153149606299
21
-4.5146509055118109
0
LINE
8
BLACK
6
CONTINUOUS
10
2.3085153149606299
20
-4.5146509055118109
11
2.3120633464566929
21
-4.5131812598425194
0
LINE
8
BLACK
6
CONTINUOUS
10
2.3120633464566929
20
-4.5131812598425194
11
2.3139835433070868
21
-4.512992125984252
0
LINE
8
BLACK
6
CONTINUOUS
10
2.3139835433070868
20
-4.512992125984252
11
2.3592591338582678
21
-4.512992125984252
0
LINE
8
BLACK
6
CONTINUOUS
10
2.3592591338582678
20
-4.512992125984252
11
2.3611793307086613
21
-4.5131812598425194
0
LINE
8
BLACK
6
CONTINUOUS
10
2.1769273622047245
20
-4.5131812598425194
11
2.1804753937007875
21
-4.5146509055118109
0
LINE
8
BLACK
6
CONTINUOUS
10
2.1804753937007875
20
-4.5146509055118109
11
2.1831909055118111
21
-4.5173664173228349
0
LINE
8
BLACK
6
CONTINUOUS
10
2.1831909055118111
20
-4.5173664173228349
11
2.1846605511811021
21
-4.5209144488188979
0
LINE
8
BLACK
6
CONTINUOUS
10
2.1846605511811021
20
-4.5209144488188979
11
2.1846605511811021
21
-4.5247548425196848
0
LINE
8
BLACK
6
CONTINUOUS
10
2.1846605511811021
20
-4.5247548425196848
11
2.1831909055118111
21
-4.5283028740157478
0
LINE
8
BLACK
6
CONTINUOUS
10
2.1831909055118111
20
-4.5283028740157478
11
2.1804753937007875
21
-4.5310183858267719
0
LINE
8
BLACK
6
CONTINUOUS
10
2.1804753937007875
20
-4.5310183858267719
11
2.1769273622047245
21
-4.5324880314960625
0
LINE
8
BLACK
6
CONTINUOUS
10
2.1769273622047245
20
-4.5324880314960625
11
2.1750071653543306
21
-4.5326771653543307
0
LINE
8
BLACK
6
CONTINUOUS
10
2.1750071653543306
20
-4.5326771653543307
11
2.1297315748031496
21
-4.5326771653543307
0
LINE
8
BLACK
6
CONTINUOUS
10
2.1297315748031496
20
-4.5326771653543307
11
2.1278113779527557
21
-4.5324880314960625
0
LINE
8
BLACK
6
CONTINUOUS
10
2.1278113779527557
20
-4.5324880314960625
11
2.1242633464566927
21
-4.5310183858267719
0
LINE
8
BLACK
6
CONTINUOUS
10
2.1242633464566927
20
-4.5310183858267719
11
2.1215478346456691
21
-4.5283028740157478
0
LINE
8
BLACK
6
CONTINUOUS
10
2.1215478346456691
20
-4.5283028740157478
11
2.120078188976378
21
-4.5247548425196848
0
LINE
8
BLACK
6
CONTINUOUS
10
2.120078188976378
20
-4.5247548425196848
11
2.120078188976378
21
-4.5209144488188979
0
LINE
8
BLACK
6
CONTINUOUS
10
2.120078188976378
20
-4.5209144488188979
11
2.1215478346456691
21
-4.5173664173228349
0
LINE
8
BLACK
6
CONTINUOUS
10
2.1215478346456691
20
-4.5173664173228349
11
2.1242633464566927
21
-4.5146509055118109
0
LINE
8
BLACK
6
CONTINUOUS
10
2.1242633464566927
20
-4.5146509055118109
11
2.1278113779527557
21
-4.5131812598425194
0
LINE
8
BLACK
6
CONTINUOUS
10
2.1278113779527557
20
-4.5131812598425194
11
2.1297315748031496
21
-4.512992125984252
0
LINE
8
BLACK
6
CONTINUOUS
10
2.1297315748031496
20
-4.512992125984252
11
2.1750071653543306
21
-4.512992125984252
0
LINE
8
BLACK
6
CONTINUOUS
10
2.1750071653543306
20
-4.512992125984252
11
2.1769273622047245
21
-4.5131812598425194
0
CIRCLE
8
BLACK
10
2.34015
20
-3.405574803149606
40
0.0068897637795276
0
CIRCLE
8
BLACK
10
2.34015
20
-3.7008503937007875
40
0.0068897637795276
0
LINE
8
BLACK
6
CONTINUOUS
10
2.3613615354330708
20
-3.3238741732283463
11
2.3649095669291338
21
-3.3253438188976379
0
LINE
8
BLACK
6
CONTINUOUS
10
2.3649095669291338
20
-3.3253438188976379
11
2.3676250787401574
21
-3.3280593307086614
0
LINE
8
BLACK
6
CONTINUOUS
10
2.3676250787401574
20
-3.3280593307086614
11
2.3690947244094489
21
-3.3316073622047244
0
LINE
8
BLACK
6
CONTINUOUS
10
2.3690947244094489
20
-3.3316073622047244
11
2.3690947244094489
21
-3.3354477559055118
0
LINE
8
BLACK
6
CONTINUOUS
10
2.3690947244094489
20
-3.3354477559055118
11
2.3676250787401574
21
-3.3389957874015748
0
LINE
8
BLACK
6
CONTINUOUS
10
2.3676250787401574
20
-3.3389957874015748
11
2.3649095669291338
21
-3.3417112992125984
0
LINE
8
BLACK
6
CONTINUOUS
10
2.3649095669291338
20
-3.3417112992125984
11
2.3613615354330708
21
-3.3431809448818899
0
LINE
8
BLACK
6
CONTINUOUS
10
2.3613615354330708
20
-3.3431809448818899
11
2.3594413385826769
21
-3.3433700787401572
0
LINE
8
BLACK
6
CONTINUOUS
10
2.3594413385826769
20
-3.3433700787401572
11
2.3141657480314959
21
-3.3433700787401572
0
LINE
8
BLACK
6
CONTINUOUS
10
2.3141657480314959
20
-3.3433700787401572
11
2.3122455511811024
21
-3.3431809448818899
0
LINE
8
BLACK
6
CONTINUOUS
10
2.3122455511811024
20
-3.3431809448818899
11
2.3086975196850394
21
-3.3417112992125984
0
LINE
8
BLACK
6
CONTINUOUS
10
2.3086975196850394
20
-3.3417112992125984
11
2.3059820078740159
21
-3.3389957874015748
0
LINE
8
BLACK
6
CONTINUOUS
10
2.3059820078740159
20
-3.3389957874015748
11
2.3045123622047243
21
-3.3354477559055118
0
LINE
8
BLACK
6
CONTINUOUS
10
2.3045123622047243
20
-3.3354477559055118
11
2.3045123622047243
21
-3.3316073622047244
0
LINE
8
BLACK
6
CONTINUOUS
10
2.3045123622047243
20
-3.3316073622047244
11
2.3059820078740159
21
-3.3280593307086614
0
LINE
8
BLACK
6
CONTINUOUS
10
2.3059820078740159
20
-3.3280593307086614
11
2.3086975196850394
21
-3.3253438188976379
0
LINE
8
BLACK
6
CONTINUOUS
10
2.3086975196850394
20
-3.3253438188976379
11
2.3122455511811024
21
-3.3238741732283463
0
LINE
8
BLACK
6
CONTINUOUS
10
2.3122455511811024
20
-3.3238741732283463
11
2.3141657480314959
21
-3.3236850393700785
0
LINE
8
BLACK
6
CONTINUOUS
10
2.3141657480314959
20
-3.3236850393700785
11
2.3594413385826769
21
-3.3236850393700785
0
LINE
8
BLACK
6
CONTINUOUS
10
2.3594413385826769
20
-3.3236850393700785
11
2.3613615354330708
21
-3.3238741732283463
0
LINE
8
BLACK
6
CONTINUOUS
10
2.1775032677165354
20
-3.3238741732283463
11
2.1810512992125983
21
-3.3253438188976379
0
LINE
8
BLACK
6
CONTINUOUS
10
2.1810512992125983
20
-3.3253438188976379
11
2.1837668110236219
21
-3.3280593307086614
0
LINE
8
BLACK
6
CONTINUOUS
10
2.1837668110236219
20
-3.3280593307086614
11
2.1852364566929134
21
-3.3316073622047244
0
LINE
8
BLACK
6
CONTINUOUS
10
2.1852364566929134
20
-3.3316073622047244
11
2.1852364566929134
21
-3.3354477559055118
0
LINE
8
BLACK
6
CONTINUOUS
10
2.1852364566929134
20
-3.3354477559055118
11
2.1837668110236219
21
-3.3389957874015748
0
LINE
8
BLACK
6
CONTINUOUS
10
2.1837668110236219
20
-3.3389957874015748
11
2.1810512992125983
21
-3.3417112992125984
0
LINE
8
BLACK
6
CONTINUOUS
10
2.1810512992125983
20
-3.3417112992125984
11
2.1775032677165354
21
-3.3431809448818899
0
LINE
8
BLACK
6
CONTINUOUS
10
2.1775032677165354
20
-3.3431809448818899
11
2.1755830708661419
21
-3.3433700787401572
0
LINE
8
BLACK
6
CONTINUOUS
10
2.1755830708661419
20
-3.3433700787401572
11
2.1303074803149604
21
-3.3433700787401572
0
LINE
8
BLACK
6
CONTINUOUS
10
2.1303074803149604
20
-3.3433700787401572
11
2.128387283464567
21
-3.3431809448818899
0
LINE
8
BLACK
6
CONTINUOUS
10
2.128387283464567
20
-3.3431809448818899
11
2.124839251968504
21
-3.3417112992125984
0
LINE
8
BLACK
6
CONTINUOUS
10
2.124839251968504
20
-3.3417112992125984
11
2.1221237401574804
21
-3.3389957874015748
0
LINE
8
BLACK
6
CONTINUOUS
10
2.1221237401574804
20
-3.3389957874015748
11
2.1206540944881889
21
-3.3354477559055118
0
LINE
8
BLACK
6
CONTINUOUS
10
2.1206540944881889
20
-3.3354477559055118
11
2.1206540944881889
21
-3.3316073622047244
0
LINE
8
BLACK
6
CONTINUOUS
10
2.1206540944881889
20
-3.3316073622047244
11
2.1221237401574804
21
-3.3280593307086614
0
LINE
8
BLACK
6
CONTINUOUS
10
2.1221237401574804
20
-3.3280593307086614
11
2.124839251968504
21
-3.3253438188976379
0
LINE
8
BLACK
6
CONTINUOUS
10
2.124839251968504
20
-3.3253438188976379
11
2.128387283464567
21
-3.3238741732283463
0
LINE
8
BLACK
6
CONTINUOUS
10
2.128387283464567
20
-3.3238741732283463
11
2.1303074803149604
21
-3.3236850393700785
0
LINE
8
BLACK
6
CONTINUOUS
10
2.1303074803149604
20
-3.3236850393700785
11
2.1755830708661419
21
-3.3236850393700785
0
LINE
8
BLACK
6
CONTINUOUS
10
2.1755830708661419
20
-3.3236850393700785
11
2.1775032677165354
21
-3.3238741732283463
0
LINE
8
BLACK
6
CONTINUOUS
10
2.3613615354330708
20
-3.7632442519685037
11
2.3649095669291338
21
-3.7647138976377952
0
LINE
8
BLACK
6
CONTINUOUS
10
2.3649095669291338
20
-3.7647138976377952
11
2.3676250787401574
21
-3.7674294094488188
0
LINE
8
BLACK
6
CONTINUOUS
10
2.3676250787401574
20
-3.7674294094488188
11
2.3690947244094489
21
-3.7709774409448817
0
LINE
8
BLACK
6
CONTINUOUS
10
2.3690947244094489
20
-3.7709774409448817
11
2.3690947244094489
21
-3.7748178346456691
0
LINE
8
BLACK
6
CONTINUOUS
10
2.3690947244094489
20
-3.7748178346456691
11
2.3676250787401574
21
-3.7783658661417321
0
LINE
8
BLACK
6
CONTINUOUS
10
2.3676250787401574
20
-3.7783658661417321
11
2.3649095669291338
21
-3.7810813779527557
0
LINE
8
BLACK
6
CONTINUOUS
10
2.3649095669291338
20
-3.7810813779527557
11
2.3613615354330708
21
-3.7825510236220472
0
LINE
8
BLACK
6
CONTINUOUS
10
2.3613615354330708
20
-3.7825510236220472
11
2.3594413385826769
21
-3.782740157480315
0
LINE
8
BLACK
6
CONTINUOUS
10
2.3594413385826769
20
-3.782740157480315
11
2.3141657480314959
21
-3.782740157480315
0
LINE
8
BLACK
6
CONTINUOUS
10
2.3141657480314959
20
-3.782740157480315
11
2.3122455511811024
21
-3.7825510236220472
0
LINE
8
BLACK
6
CONTINUOUS
10
2.3122455511811024
20
-3.7825510236220472
11
2.3086975196850394
21
-3.7810813779527557
0
LINE
8
BLACK
6
CONTINUOUS
10
2.3086975196850394
20
-3.7810813779527557
11
2.3059820078740159
21
-3.7783658661417321
0
LINE
8
BLACK
6
CONTINUOUS
10
2.3059820078740159
20
-3.7783658661417321
11
2.3045123622047243
21
-3.7748178346456691
0
LINE
8
BLACK
6
CONTINUOUS
10
2.3045123622047243
20
-3.7748178346456691
11
2.3045123622047243
21
-3.7709774409448817
0
LINE
8
BLACK
6
CONTINUOUS
10
2.3045123622047243
20
-3.7709774409448817
11
2.3059820078740159
21
-3.7674294094488188
0
LINE
8
BLACK
6
CONTINUOUS
10
2.3059820078740159
20
-3.7674294094488188
11
2.3086975196850394
21
-3.7647138976377952
0
LINE
8
BLACK
6
CONTINUOUS
10
2.3086975196850394
20
-3.7647138976377952
11
2.3122455511811024
21
-3.7632442519685037
0
LINE
8
BLACK
6
CONTINUOUS
10
2.3122455511811024
20
-3.7632442519685037
11
2.3141657480314959
21
-3.7630551181102363
0
LINE
8
BLACK
6
CONTINUOUS
10
2.3141657480314959
20
-3.7630551181102363
11
2.3594413385826769
21
-3.7630551181102363
0
LINE
8
BLACK
6
CONTINUOUS
10
2.3594413385826769
20
-3.7630551181102363
11
2.3613615354330708
21
-3.7632442519685037
0
LINE
8
BLACK
6
CONTINUOUS
10
2.1771095669291336
20
-3.7632442519685037
11
2.180657598425197
21
-3.7647138976377952
0
LINE
8
BLACK
6
CONTINUOUS
10
2.180657598425197
20
-3.7647138976377952
11
2.1833731102362206
21
-3.7674294094488188
0
LINE
8
BLACK
6
CONTINUOUS
10
2.1833731102362206
20
-3.7674294094488188
11
2.1848427559055117
21
-3.7709774409448817
0
LINE
8
BLACK
6
CONTINUOUS
10
2.1848427559055117
20
-3.7709774409448817
11
2.1848427559055117
21
-3.7748178346456691
0
LINE
8
BLACK
6
CONTINUOUS
10
2.1848427559055117
20
-3.7748178346456691
11
2.1833731102362206
21
-3.7783658661417321
0
LINE
8
BLACK
6
CONTINUOUS
10
2.1833731102362206
20
-3.7783658661417321
11
2.180657598425197
21
-3.7810813779527557
0
LINE
8
BLACK
6
CONTINUOUS
10
2.180657598425197
20
-3.7810813779527557
11
2.1771095669291336
21
-3.7825510236220472
0
LINE
8
BLACK
6
CONTINUOUS
10
2.1771095669291336
20
-3.7825510236220472
11
2.1751893700787401
21
-3.782740157480315
0
LINE
8
BLACK
6
CONTINUOUS
10
2.1751893700787401
20
-3.782740157480315
11
2.1299137795275591
21
-3.782740157480315
0
LINE
8
BLACK
6
CONTINUOUS
10
2.1299137795275591
20
-3.782740157480315
11
2.1279935826771652
21
-3.7825510236220472
0
LINE
8
BLACK
6
CONTINUOUS
10
2.1279935826771652
20
-3.7825510236220472
11
2.1244455511811022
21
-3.7810813779527557
0
LINE
8
BLACK
6
CONTINUOUS
10
2.1244455511811022
20
-3.7810813779527557
11
2.1217300393700786
21
-3.7783658661417321
0
LINE
8
BLACK
6
CONTINUOUS
10
2.1217300393700786
20
-3.7783658661417321
11
2.1202603937007876
21
-3.7748178346456691
0
LINE
8
BLACK
6
CONTINUOUS
10
2.1202603937007876
20
-3.7748178346456691
11
2.1202603937007876
21
-3.7709774409448817
0
LINE
8
BLACK
6
CONTINUOUS
10
2.1202603937007876
20
-3.7709774409448817
11
2.1217300393700786
21
-3.7674294094488188
0
LINE
8
BLACK
6
CONTINUOUS
10
2.1217300393700786
20
-3.7674294094488188
11
2.1244455511811022
21
-3.7647138976377952
0
LINE
8
BLACK
6
CONTINUOUS
10
2.1244455511811022
20
-3.7647138976377952
11
2.1279935826771652
21
-3.7632442519685037
0
LINE
8
BLACK
6
CONTINUOUS
10
2.1279935826771652
20
-3.7632442519685037
11
2.1299137795275591
21
-3.7630551181102363
0
LINE
8
BLACK
6
CONTINUOUS
10
2.1299137795275591
20
-3.7630551181102363
11
2.1751893700787401
21
-3.7630551181102363
0
LINE
8
BLACK
6
CONTINUOUS
10
2.1751893700787401
20
-3.7630551181102363
11
2.1771095669291336
21
-3.7632442519685037
0
CIRCLE
8
BLACK
10
4.3661417322834648
20
-4.6653543307086611
40
0.0068897637795276
0
CIRCLE
8
BLACK
10
4.2661417322834643
20
-4.6653543307086611
40
0.0068897637795276
0
CIRCLE
8
BLACK
10
4.1661417322834646
20
-4.6653543307086611
40
0.0068897637795276
0
CIRCLE
8
BLACK
10
4.0661417322834641
20
-4.6653543307086611
40
0.0068897637795276
0
CIRCLE
8
BLACK
10
3.9661417322834644
20
-4.6653543307086611
40
0.0068897637795276
0
CIRCLE
8
BLACK
10
3.8661417322834644
20
-4.6653543307086611
40
0.0068897637795276
0
CIRCLE
8
BLACK
10
3.7661417322834643
20
-4.6653543307086611
40
0.0068897637795276
0
CIRCLE
8
BLACK
10
3.6661417322834646
20
-4.6653543307086611
40
0.0068897637795276
0
CIRCLE
8
BLACK
10
3.5661417322834645
20
-4.6653543307086611
40
0.0068897637795276
0
CIRCLE
8
BLACK
10
3.4661417322834644
20
-4.6653543307086611
40
0.0068897637795276
0
CIRCLE
8
BLACK
10
3.3661417322834644
20
-4.6653543307086611
40
0.0068897637795276
0
CIRCLE
8
BLACK
10
3.6102362204724407
20
-4.5511811023622046
40
0.0068897637795276
0
CIRCLE
8
BLACK
10
3.276574803149606
20
-4.5196850393700787
40
0.0068897637795276
0
CIRCLE
8
BLACK
10
3.1765748031496064
20
-4.5196850393700787
40
0.0068897637795276
0
CIRCLE
8
BLACK
10
3.0765748031496063
20
-4.5196850393700787
40
0.0068897637795276
0
CIRCLE
8
BLACK
10
3.1968503937007875
20
-4.6653543307086611
40
0.0068897637795276
0
CIRCLE
8
BLACK
10
3.0968503937007874
20
-4.6653543307086611
40
0.0068897637795276
0
CIRCLE
8
BLACK
10
2.9968503937007873
20
-4.6653543307086611
40
0.0068897637795276
0
CIRCLE
8
BLACK
10
2.8968503937007872
20
-4.6653543307086611
40
0.0068897637795276
0
CIRCLE
8
BLACK
10
2.7968503937007871
20
-4.6653543307086611
40
0.0068897637795276
0
CIRCLE
8
BLACK
10
2.6968503937007875
20
-4.6653543307086611
40
0.0068897637795276
0
CIRCLE
8
BLACK
10
2.5968503937007874
20
-4.6653543307086611
40
0.0068897637795276
0
CIRCLE
8
BLACK
10
2.4968503937007873
20
-4.6653543307086611
40
0.0068897637795276
0
CIRCLE
8
BLACK
10
2.3968503937007872
20
-4.6653543307086611
40
0.0068897637795276
0
CIRCLE
8
BLACK
10
2.2968503937007871
20
-4.6653543307086611
40
0.0068897637795276
0
CIRCLE
8
BLACK
10
2.1968503937007875
20
-4.6653543307086611
40
0.0068897637795276
0
CIRCLE
8
BLACK
10
4.0394160236220475
20
-4.497047244094488
40
0.0068897637795276
0
CIRCLE
8
BLACK
10
4.0394160236220475
20
-4.4470472440944881
40
0.0068897637795276
0
CIRCLE
8
BLACK
10
4.0394160236220475
20
-4.3970472440944883
40
0.0068897637795276
0
CIRCLE
8
BLACK
10
4.0394160236220475
20
-4.3470472440944885
40
0.0068897637795276
0
CIRCLE
8
BLACK
10
4.0394160236220475
20
-4.2970472440944878
40
0.0068897637795276
0
CIRCLE
8
BLACK
10
4.0394160236220475
20
-4.247047244094488
40
0.0068897637795276
0
CIRCLE
8
BLACK
10
4.0394160236220475
20
-4.1970472440944881
40
0.0068897637795276
0
CIRCLE
8
BLACK
10
3.1968503937007875
20
-3.0708661417322833
40
0.0068897637795276
0
CIRCLE
8
BLACK
10
3.0968503937007874
20
-3.0708661417322833
40
0.0068897637795276
0
CIRCLE
8
BLACK
10
2.9968503937007873
20
-3.0708661417322833
40
0.0068897637795276
0
CIRCLE
8
BLACK
10
2.8968503937007872
20
-3.0708661417322833
40
0.0068897637795276
0
CIRCLE
8
BLACK
10
2.7968503937007871
20
-3.0708661417322833
40
0.0068897637795276
0
CIRCLE
8
BLACK
10
2.6968503937007875
20
-3.0708661417322833
40
0.0068897637795276
0
CIRCLE
8
BLACK
10
2.5968503937007874
20
-3.0708661417322833
40
0.0068897637795276
0
CIRCLE
8
BLACK
10
2.4968503937007873
20
-3.0708661417322833
40
0.0068897637795276
0
CIRCLE
8
BLACK
10
2.3968503937007872
20
-3.0708661417322833
40
0.0068897637795276
0
CIRCLE
8
BLACK
10
2.2968503937007871
20
-3.0708661417322833
40
0.0068897637795276
0
CIRCLE
8
BLACK
10
2.1968503937007875
20
-3.0708661417322833
40
0.0068897637795276
0
CIRCLE
8
BLACK
10
4.3582677165354333
20
-3.0708661417322833
40
0.0068897637795276
0
CIRCLE
8
BLACK
10
4.2582677165354328
20
-3.0708661417322833
40
0.0068897637795276
0
CIRCLE
8
BLACK
10
4.1582677165354331
20
-3.0708661417322833
40
0.0068897637795276
0
CIRCLE
8
BLACK
10
4.0582677165354326
20
-3.0708661417322833
40
0.0068897637795276
0
CIRCLE
8
BLACK
10
3.958267716535433
20
-3.0708661417322833
40
0.0068897637795276
0
CIRCLE
8
BLACK
10
3.8582677165354329
20
-3.0708661417322833
40
0.0068897637795276
0
CIRCLE
8
BLACK
10
3.7582677165354328
20
-3.0708661417322833
40
0.0068897637795276
0
CIRCLE
8
BLACK
10
3.6582677165354331
20
-3.0708661417322833
40
0.0068897637795276
0
CIRCLE
8
BLACK
10
3.5582677165354331
20
-3.0708661417322833
40
0.0068897637795276
0
CIRCLE
8
BLACK
10
3.458267716535433
20
-3.0708661417322833
40
0.0068897637795276
0
CIRCLE
8
BLACK
10
3.3582677165354329
20
-3.0708661417322833
40
0.0068897637795276
0
CIRCLE
8
BLACK
10
2.4921259842519685
20
-4.0639763779527556
40
0.0068897637795276
0
CIRCLE
8
BLACK
10
2.4921259842519685
20
-3.9639763779527559
40
0.0068897637795276
0
CIRCLE
8
BLACK
10
2.4921259842519685
20
-3.8639763779527558
40
0.0068897637795276
0
CIRCLE
8
BLACK
10
4.3700787401574805
20
-3.2598425196850394
40
0.0068897637795276
0
CIRCLE
8
BLACK
10
4.3700787401574805
20
-3.3598425196850394
40
0.0068897637795276
0
CIRCLE
8
BLACK
10
4.3700787401574805
20
-3.4598425196850391
40
0.0068897637795276
0
CIRCLE
8
BLACK
10
4.3700787401574805
20
-3.5598425196850392
40
0.0068897637795276
0
CIRCLE
8
BLACK
10
4.3700787401574805
20
-3.6598425196850393
40
0.0068897637795276
0
CIRCLE
8
BLACK
10
4.3700787401574805
20
-3.7598425196850394
40
0.0068897637795276
0
CIRCLE
8
BLACK
10
4.3700787401574805
20
-3.8598425196850394
40
0.0068897637795276
0
CIRCLE
8
BLACK
10
4.3700787401574805
20
-3.9598425196850391
40
0.0068897637795276
0
CIRCLE
8
BLACK
10
4.3700787401574805
20
-4.0598425196850396
40
0.0068897637795276
0
CIRCLE
8
BLACK
10
4.3700787401574805
20
-4.1598425196850393
40
0.0068897637795276
0
CIRCLE
8
BLACK
10
4.3700787401574805
20
-4.2598425196850389
40
0.0068897637795276
0
CIRCLE
8
BLACK
10
4.3700787401574805
20
-4.3598425196850394
40
0.0068897637795276
0
CIRCLE
8
BLACK
10
2.3399677952755904
20
-4.1555118110236222
40
0.0068897637795276
0
CIRCLE
8
BLACK
10
2.3399677952755904
20
-4.4507874015748028
40
0.0068897637795276
0
LINE
8
BLACK
6
CONTINUOUS
10
2.3592591338582678
20
-4.0736220472440943
11
2.3139835433070868
21
-4.0736220472440943
0
ARC
8
BLACK
10
2.3139835433070868
20
-4.0834645669291341
40
0.0098425196850394
50
90.00000000
51
270.00000000
0
LINE
8
BLACK
6
CONTINUOUS
10
2.3139835433070868
20
-4.093307086614173
11
2.3592591338582678
21
-4.093307086614173
0
ARC
8
BLACK
10
2.3592591338582678
20
-4.0834645669291341
40
0.0098425196850394
50
270.00000000
51
450.00000000
0
LINE
8
BLACK
6
CONTINUOUS
10
2.1754008661417323
20
-4.0736220472440943
11
2.1301252755905513
21
-4.0736220472440943
0
ARC
8
BLACK
10
2.1301252755905513
20
-4.0834645669291341
40
0.0098425196850394
50
90.00000000
51
270.00000000
0
LINE
8
BLACK
6
CONTINUOUS
10
2.1301252755905513
20
-4.093307086614173
11
2.1754008661417323
21
-4.093307086614173
0
ARC
8
BLACK
10
2.1754008661417323
20
-4.0834645669291341
40
0.0098425196850394
50
270.00000000
51
450.00000000
0
LINE
8
BLACK
6
CONTINUOUS
10
2.3592591338582678
20
-4.512992125984252
11
2.3139835433070868
21
-4.512992125984252
0
ARC
8
BLACK
10
2.3139835433070868
20
-4.5228346456692909
40
0.0098425196850394
50
90.00000000
51
270.00000000
0
LINE
8
BLACK
6
CONTINUOUS
10
2.3139835433070868
20
-4.5326771653543307
11
2.3592591338582678
21
-4.5326771653543307
0
ARC
8
BLACK
10
2.3592591338582678
20
-4.5228346456692909
40
0.0098425196850394
50
270.00000000
51
450.00000000
0
LINE
8
BLACK
6
CONTINUOUS
10
2.1750071653543306
20
-4.512992125984252
11
2.1297315748031496
21
-4.512992125984252
0
ARC
8
BLACK
10
2.1297315748031496
20
-4.5228346456692909
40
0.0098425196850394
50
90.00000000
51
270.00000000
0
LINE
8
BLACK
6
CONTINUOUS
10
2.1297315748031496
20
-4.5326771653543307
11
2.1750071653543306
21
-4.5326771653543307
0
ARC
8
BLACK
10
2.1750071653543306
20
-4.5228346456692909
40
0.0098425196850394
50
270.00000000
51
450.00000000
0
CIRCLE
8
BLACK
10
2.34015
20
-3.405574803149606
40
0.0068897637795276
0
CIRCLE
8
BLACK
10
2.34015
20
-3.7008503937007875
40
0.0068897637795276
0
LINE
8
BLACK
6
CONTINUOUS
10
2.3594413385826769
20
-3.3236850393700785
11
2.3141657480314959
21
-3.3236850393700785
0
ARC
8
BLACK
10
2.3141657480314959
20
-3.3335275590551179
40
0.0098425196850394
50
90.00000000
51
270.00000000
0
LINE
8
BLACK
6
CONTINUOUS
10
2.3141657480314959
20
-3.3433700787401572
11
2.3594413385826769
21
-3.3433700787401572
0
ARC
8
BLACK
10
2.3594413385826769
20
-3.3335275590551179
40
0.0098425196850394
50
270.00000000
51
450.00000000
0
LINE
8
BLACK
6
CONTINUOUS
10
2.1755830708661419
20
-3.3236850393700785
11
2.1303074803149604
21
-3.3236850393700785
0
ARC
8
BLACK
10
2.1303074803149604
20
-3.3335275590551179
40
0.0098425196850394
50
90.00000000
51
270.00000000
0
LINE
8
BLACK
6
CONTINUOUS
10
2.1303074803149604
20
-3.3433700787401572
11
2.1755830708661419
21
-3.3433700787401572
0
ARC
8
BLACK
10
2.1755830708661419
20
-3.3335275590551179
40
0.0098425196850394
50
270.00000000
51
450.00000000
0
LINE
8
BLACK
6
CONTINUOUS
10
2.3594413385826769
20
-3.7630551181102363
11
2.3141657480314959
21
-3.7630551181102363
0
ARC
8
BLACK
10
2.3141657480314959
20
-3.7728976377952756
40
0.0098425196850394
50
90.00000000
51
270.00000000
0
LINE
8
BLACK
6
CONTINUOUS
10
2.3141657480314959
20
-3.782740157480315
11
2.3594413385826769
21
-3.782740157480315
0
ARC
8
BLACK
10
2.3594413385826769
20
-3.7728976377952756
40
0.0098425196850394
50
270.00000000
51
450.00000000
0
LINE
8
BLACK
6
CONTINUOUS
10
2.1751893700787401
20
-3.7630551181102363
11
2.1299137795275591
21
-3.7630551181102363
0
ARC
8
BLACK
10
2.1299137795275591
20
-3.7728976377952756
40
0.0098425196850394
50
90.00000000
51
270.00000000
0
LINE
8
BLACK
6
CONTINUOUS
10
2.1299137795275591
20
-3.782740157480315
11
2.1751893700787401
21
-3.782740157480315
0
ARC
8
BLACK
10
2.1751893700787401
20
-3.7728976377952756
40
0.0098425196850394
50
270.00000000
51
450.00000000
0
CIRCLE
8
BLACK
10
4.3661417322834648
20
-4.6653543307086611
40
0.0068897637795276
0
CIRCLE
8
BLACK
10
4.2661417322834643
20
-4.6653543307086611
40
0.0068897637795276
0
CIRCLE
8
BLACK
10
4.1661417322834646
20
-4.6653543307086611
40
0.0068897637795276
0
CIRCLE
8
BLACK
10
4.0661417322834641
20
-4.6653543307086611
40
0.0068897637795276
0
CIRCLE
8
BLACK
10
3.9661417322834644
20
-4.6653543307086611
40
0.0068897637795276
0
CIRCLE
8
BLACK
10
3.8661417322834644
20
-4.6653543307086611
40
0.0068897637795276
0
CIRCLE
8
BLACK
10
3.7661417322834643
20
-4.6653543307086611
40
0.0068897637795276
0
CIRCLE
8
BLACK
10
3.6661417322834646
20
-4.6653543307086611
40
0.0068897637795276
0
CIRCLE
8
BLACK
10
3.5661417322834645
20
-4.6653543307086611
40
0.0068897637795276
0
CIRCLE
8
BLACK
10
3.4661417322834644
20
-4.6653543307086611
40
0.0068897637795276
0
CIRCLE
8
BLACK
10
3.3661417322834644
20
-4.6653543307086611
40
0.0068897637795276
0
CIRCLE
8
BLACK
10
3.6102362204724407
20
-4.5511811023622046
40
0.0068897637795276
0
CIRCLE
8
BLACK
10
3.276574803149606
20
-4.5196850393700787
40
0.0068897637795276
0
CIRCLE
8
BLACK
10
3.1765748031496064
20
-4.5196850393700787
40
0.0068897637795276
0
CIRCLE
8
BLACK
10
3.0765748031496063
20
-4.5196850393700787
40
0.0068897637795276
0
CIRCLE
8
BLACK
10
3.1968503937007875
20
-4.6653543307086611
40
0.0068897637795276
0
CIRCLE
8
BLACK
10
3.0968503937007874
20
-4.6653543307086611
40
0.0068897637795276
0
CIRCLE
8
BLACK
10
2.9968503937007873
20
-4.6653543307086611
40
0.0068897637795276
0
CIRCLE
8
BLACK
10
2.8968503937007872
20
-4.6653543307086611
40
0.0068897637795276
0
CIRCLE
8
BLACK
10
2.7968503937007871
20
-4.6653543307086611
40
0.0068897637795276
0
CIRCLE
8
BLACK
10
2.6968503937007875
20
-4.6653543307086611
40
0.0068897637795276
0
CIRCLE
8
BLACK
10
2.5968503937007874
20
-4.6653543307086611
40
0.0068897637795276
0
CIRCLE
8
BLACK
10
2.4968503937007873
20
-4.6653543307086611
40
0.0068897637795276
0
CIRCLE
8
BLACK
10
2.3968503937007872
20
-4.6653543307086611
40
0.0068897637795276
0
CIRCLE
8
BLACK
10
2.2968503937007871
20
-4.6653543307086611
40
0.0068897637795276
0
CIRCLE
8
BLACK
10
2.1968503937007875
20
-4.6653543307086611
40
0.0068897637795276
0
CIRCLE
8
BLACK
10
4.0394160236220475
20
-4.497047244094488
40
0.0068897637795276
0
CIRCLE
8
BLACK
10
4.0394160236220475
20
-4.4470472440944881
40
0.0068897637795276
0
CIRCLE
8
BLACK
10
4.0394160236220475
20
-4.3970472440944883
40
0.0068897637795276
0
CIRCLE
8
BLACK
10
4.0394160236220475
20
-4.3470472440944885
40
0.0068897637795276
0
CIRCLE
8
BLACK
10
4.0394160236220475
20
-4.2970472440944878
40
0.0068897637795276
0
CIRCLE
8
BLACK
10
4.0394160236220475
20
-4.247047244094488
40
0.0068897637795276
0
CIRCLE
8
BLACK
10
4.0394160236220475
20
-4.1970472440944881
40
0.0068897637795276
0
CIRCLE
8
BLACK
10
3.1968503937007875
20
-3.0708661417322833
40
0.0068897637795276
0
CIRCLE
8
BLACK
10
3.0968503937007874
20
-3.0708661417322833
40
0.0068897637795276
0
CIRCLE
8
BLACK
10
2.9968503937007873
20
-3.0708661417322833
40
0.0068897637795276
0
CIRCLE
8
BLACK
10
2.8968503937007872
20
-3.0708661417322833
40
0.0068897637795276
0
CIRCLE
8
BLACK
10
2.7968503937007871
20
-3.0708661417322833
40
0.0068897637795276
0
CIRCLE
8
BLACK
10
2.6968503937007875
20
-3.0708661417322833
40
0.0068897637795276
0
CIRCLE
8
BLACK
10
2.5968503937007874
20
-3.0708661417322833
40
0.0068897637795276
0
CIRCLE
8
BLACK
10
2.4968503937007873
20
-3.0708661417322833
40
0.0068897637795276
0
CIRCLE
8
BLACK
10
2.3968503937007872
20
-3.0708661417322833
40
0.0068897637795276
0
CIRCLE
8
BLACK
10
2.2968503937007871
20
-3.0708661417322833
40
0.0068897637795276
0
CIRCLE
8
BLACK
10
2.1968503937007875
20
-3.0708661417322833
40
0.0068897637795276
0
CIRCLE
8
BLACK
10
4.3582677165354333
20
-3.0708661417322833
40
0.0068897637795276
0
CIRCLE
8
BLACK
10
4.2582677165354328
20
-3.0708661417322833
40
0.0068897637795276
0
CIRCLE
8
BLACK
10
4.1582677165354331
20
-3.0708661417322833
40
0.0068897637795276
0
CIRCLE
8
BLACK
10
4.0582677165354326
20
-3.0708661417322833
40
0.0068897637795276
0
CIRCLE
8
BLACK
10
3.958267716535433
20
-3.0708661417322833
40
0.0068897637795276
0
CIRCLE
8
BLACK
10
3.8582677165354329
20
-3.0708661417322833
40
0.0068897637795276
0
CIRCLE
8
BLACK
10
3.7582677165354328
20
-3.0708661417322833
40
0.0068897637795276
0
CIRCLE
8
BLACK
10
3.6582677165354331
20
-3.0708661417322833
40
0.0068897637795276
0
CIRCLE
8
BLACK
10
3.5582677165354331
20
-3.0708661417322833
40
0.0068897637795276
0
CIRCLE
8
BLACK
10
3.458267716535433
20
-3.0708661417322833
40
0.0068897637795276
0
CIRCLE
8
BLACK
10
3.3582677165354329
20
-3.0708661417322833
40
0.0068897637795276
  0
ENDSEC
  0
EOF
