M48
; DRILL file {KiCad 9.0.6+1} date 2025-11-29T01:43:02+0000
; FORMAT={3:3/ absolute / metric / suppress leading zeros}
; #@! TF.CreationDate,2025-11-29T01:43:02+00:00
; #@! TF.GenerationSoftware,Kicad,Pcbnew,9.0.6+1
; #@! TF.FileFunction,Plated,1,4,PTH
FMAT,2
METRIC,TZ
; #@! TA.AperFunction,Plated,PTH,ViaDrill
T1C0.150
; #@! TA.AperFunction,Plated,PTH,ComponentDrill
T2C0.500
; #@! TA.AperFunction,Plated,PTH,ComponentDrill
T3C0.650
; #@! TA.AperFunction,Plated,PTH,ComponentDrill
T4C1.000
%
G90
G05
T1
X62200Y-111600
X62400Y-107000
X62500Y-93000
X62900Y-86900
X64198Y-89502
X66300Y-92400
X67200Y-112300
X68100Y-108100
X68600Y-111800
X69300Y-107000
X69500Y-89500
X70000Y-107800
X70500Y-103000
X71810Y-107010
X72203Y-92703
X72500Y-101500
X72750Y-100400
X73200Y-108900
X74300Y-107600
X74400Y-90400
X76600Y-93500
X76600Y-94300
X76600Y-95100
X77200Y-83100
X77800Y-105500
X78800Y-96300
X79200Y-89000
X80600Y-96300
X80900Y-92900
X81500Y-93900
X81800Y-89100
X82900Y-90700
X84000Y-83200
X87200Y-95900
X87300Y-91400
X87800Y-84800
X87900Y-106000
X88000Y-92800
X88100Y-91600
X88200Y-99202
X88300Y-97498
X88300Y-114200
X88400Y-96325
X89050Y-91950
X89200Y-96300
X89200Y-99500
X89600Y-106000
X89800Y-84900
X90000Y-97902
X90000Y-99500
X90000Y-101100
X90000Y-102698
X90000Y-103502
X90000Y-104300
X90300Y-105400
X90400Y-93600
X90434Y-90066
X90600Y-106000
X90600Y-108000
X90700Y-106800
X90754Y-103500
X90798Y-102700
X90800Y-95500
X90800Y-96300
X90800Y-97900
X90800Y-98700
X90800Y-99500
X90800Y-100300
X90900Y-93900
X91598Y-94700
X91598Y-97100
X91600Y-96300
X91600Y-98700
X91604Y-100300
X92400Y-101100
X92400Y-101900
X92400Y-103500
X92402Y-97100
X92424Y-95495
X93196Y-102700
X93200Y-101900
X93216Y-93122
X93225Y-98722
X93251Y-97095
X93300Y-105700
X93300Y-106900
X93300Y-108200
X93300Y-109800
X93700Y-91800
X93800Y-112600
X94000Y-95500
X94000Y-96300
X94000Y-102700
X94001Y-103506
X94019Y-101892
X94400Y-93700
X94600Y-83500
X94763Y-101125
X94800Y-96300
X94800Y-101900
X94800Y-102700
X94800Y-107700
X94800Y-113000
X94817Y-97813
X95000Y-116000
X95202Y-107100
X95600Y-94700
X95600Y-96300
X95600Y-103500
X95702Y-107700
X95800Y-106500
X95844Y-114258
X95900Y-93500
X95967Y-90854
X96276Y-112500
X96400Y-96300
X96400Y-98700
X96400Y-100300
X96400Y-101900
X96400Y-104300
X96500Y-115700
X96802Y-93476
X97200Y-94700
X97200Y-95500
X97200Y-97100
X97200Y-100300
X97200Y-101100
X97200Y-102700
X97200Y-104300
X97400Y-105500
X97700Y-108100
X97776Y-109500
X98000Y-95500
X98000Y-102700
X98498Y-110000
X98700Y-105560
X98800Y-102700
X99900Y-103000
X100300Y-97100
X100358Y-98504
X101000Y-101700
X105700Y-96700
X107600Y-104000
X109250Y-114250
X111250Y-114250
T2
X91700Y-115600
T3
X102601Y-106605
X102601Y-107875
X102601Y-109145
X102601Y-110415
X102601Y-111685
X102601Y-112955
X102601Y-114225
T4
X55800Y-78000
X55800Y-118500
X58340Y-78000
X58340Y-118500
X60880Y-78000
X60880Y-118500
X63300Y-98145
X63300Y-100685
X63300Y-103225
X63420Y-78000
X63420Y-118500
X65960Y-78000
X65960Y-118500
X68500Y-78000
X68500Y-118500
X71040Y-78000
X71040Y-118500
X73580Y-78000
X73580Y-118500
X76120Y-78000
X76120Y-118500
X78145Y-114800
X78660Y-78000
X78660Y-118500
X80685Y-114800
X81200Y-78000
X81200Y-118500
X83225Y-114800
X85300Y-78000
X85500Y-118500
X87840Y-78000
X88040Y-118500
X90380Y-78000
X90580Y-118500
X92920Y-78000
X93120Y-118500
X95460Y-78000
X95660Y-118500
X98000Y-78000
X98200Y-118500
X100540Y-78000
X100740Y-118500
X103080Y-78000
X103280Y-118500
X105620Y-78000
X105820Y-118500
X108160Y-78000
X108360Y-118500
X110700Y-78000
X110900Y-118500
X111000Y-82800
X111000Y-85340
X111000Y-87880
X111000Y-90420
X111000Y-92960
X111000Y-95500
X111000Y-98040
X111000Y-100580
X111000Y-103120
X111000Y-105660
X111000Y-108200
X111000Y-110740
T2
G00X55245Y-114880
M15
G01X54095Y-114880
M16
G05
G00X55250Y-95832
M15
G01X54100Y-95832
M16
G05
G00X55255Y-103720
M15
G01X54105Y-103720
M16
G05
G00X55260Y-84672
M15
G01X54110Y-84672
M16
G05
G00X59925Y-103720
M15
G01X58775Y-103720
M16
G05
G00X59925Y-114880
M15
G01X58775Y-114880
M16
G05
G00X59930Y-84672
M15
G01X58780Y-84672
M16
G05
G00X59930Y-95832
M15
G01X58780Y-95832
M16
G05
M30
