%TF.GenerationSoftware,KiCad,Pcbnew,9.0.1+1*%
%TF.CreationDate,2025-10-04T14:45:19+00:00*%
%TF.ProjectId,TFPILOT01,54465049-4c4f-4543-9031-2e6b69636164,rev?*%
%TF.SameCoordinates,Original*%
%TF.FileFunction,Soldermask,Bot*%
%TF.FilePolarity,Negative*%
%FSLAX46Y46*%
G04 Gerber Fmt 4.6, Leading zero omitted, Abs format (unit mm)*
G04 Created by KiCad (PCBNEW 9.0.1+1) date 2025-10-04 14:45:19*
%MOMM*%
%LPD*%
G01*
G04 APERTURE LIST*
G04 Aperture macros list*
%AMRoundRect*
0 Rectangle with rounded corners*
0 $1 Rounding radius*
0 $2 $3 $4 $5 $6 $7 $8 $9 X,Y pos of 4 corners*
0 Add a 4 corners polygon primitive as box body*
4,1,4,$2,$3,$4,$5,$6,$7,$8,$9,$2,$3,0*
0 Add four circle primitives for the rounded corners*
1,1,$1+$1,$2,$3*
1,1,$1+$1,$4,$5*
1,1,$1+$1,$6,$7*
1,1,$1+$1,$8,$9*
0 Add four rect primitives between the rounded corners*
20,1,$1+$1,$2,$3,$4,$5,0*
20,1,$1+$1,$4,$5,$6,$7,0*
20,1,$1+$1,$6,$7,$8,$9,0*
20,1,$1+$1,$8,$9,$2,$3,0*%
G04 Aperture macros list end*
%ADD10R,1.700000X1.700000*%
%ADD11O,1.700000X1.700000*%
%ADD12C,0.670000*%
%ADD13RoundRect,0.500000X-0.600000X0.000010X-0.600000X-0.000010X0.600000X-0.000010X0.600000X0.000010X0*%
%ADD14R,0.850000X0.850000*%
%ADD15R,1.000000X1.000000*%
%ADD16O,1.000000X1.000000*%
G04 APERTURE END LIST*
D10*
%TO.C,J7*%
X63300000Y-103225000D03*
D11*
X63300000Y-100685000D03*
X63300000Y-98145000D03*
%TD*%
D10*
%TO.C,J3*%
X111000000Y-82800000D03*
D11*
X111000000Y-85340000D03*
X111000000Y-87880000D03*
X111000000Y-90420000D03*
X111000000Y-92960000D03*
X111000000Y-95500000D03*
X111000000Y-98040000D03*
X111000000Y-100580000D03*
X111000000Y-103120000D03*
X111000000Y-105660000D03*
X111000000Y-108200000D03*
X111000000Y-110740000D03*
%TD*%
D12*
%TO.C,USB_DFP1*%
X59435182Y-105550000D03*
X59435182Y-113050000D03*
D13*
X59350182Y-103720000D03*
X54680182Y-103720000D03*
X59350182Y-114880000D03*
X54670182Y-114880000D03*
%TD*%
D12*
%TO.C,USB_UFP1*%
X59439810Y-86501600D03*
X59439810Y-94001600D03*
D13*
X59354810Y-84671600D03*
X54684810Y-84671600D03*
X59354810Y-95831600D03*
X54674810Y-95831600D03*
%TD*%
D10*
%TO.C,J4*%
X110900000Y-118500000D03*
D11*
X108360000Y-118500000D03*
X105820000Y-118500000D03*
X103280000Y-118500000D03*
X100740000Y-118500000D03*
X98200000Y-118500000D03*
X95660000Y-118500000D03*
X93120000Y-118500000D03*
X90580000Y-118500000D03*
X88040000Y-118500000D03*
X85500000Y-118500000D03*
%TD*%
D14*
%TO.C,P2*%
X91700000Y-115600000D03*
%TD*%
D10*
%TO.C,J6*%
X83225000Y-114800000D03*
D11*
X80685000Y-114800000D03*
X78145000Y-114800000D03*
%TD*%
D10*
%TO.C,J5*%
X81200000Y-118500000D03*
D11*
X78660000Y-118500000D03*
X76120000Y-118500000D03*
X73580000Y-118500000D03*
X71040000Y-118500000D03*
X68500000Y-118500000D03*
X65960000Y-118500000D03*
X63420000Y-118500000D03*
X60880000Y-118500000D03*
X58340000Y-118500000D03*
X55800000Y-118500000D03*
%TD*%
D15*
%TO.C,SWD1*%
X102601167Y-114225000D03*
D16*
X102601167Y-112955000D03*
X102601167Y-111685000D03*
X102601167Y-110415000D03*
X102601167Y-109145000D03*
X102601167Y-107875000D03*
X102601167Y-106605000D03*
%TD*%
D10*
%TO.C,J1*%
X81200000Y-78000000D03*
D11*
X78660000Y-78000000D03*
X76120000Y-78000000D03*
X73580000Y-78000000D03*
X71040000Y-78000000D03*
X68500000Y-78000000D03*
X65960000Y-78000000D03*
X63420000Y-78000000D03*
X60880000Y-78000000D03*
X58340000Y-78000000D03*
X55800000Y-78000000D03*
%TD*%
D10*
%TO.C,J2*%
X110700000Y-78000000D03*
D11*
X108160000Y-78000000D03*
X105620000Y-78000000D03*
X103080000Y-78000000D03*
X100540000Y-78000000D03*
X98000000Y-78000000D03*
X95460000Y-78000000D03*
X92920000Y-78000000D03*
X90380000Y-78000000D03*
X87840000Y-78000000D03*
X85300000Y-78000000D03*
%TD*%
M02*
