%TF.GenerationSoftware,KiCad,Pcbnew,9.0.7+1*%
%TF.CreationDate,2026-02-15T02:31:40+00:00*%
%TF.ProjectId,TFPILOT01,54465049-4c4f-4543-9031-2e6b69636164,rev?*%
%TF.SameCoordinates,Original*%
%TF.FileFunction,Paste,Top*%
%TF.FilePolarity,Positive*%
%FSLAX46Y46*%
G04 Gerber Fmt 4.6, Leading zero omitted, Abs format (unit mm)*
G04 Created by KiCad (PCBNEW 9.0.7+1) date 2026-02-15 02:31:40*
%MOMM*%
%LPD*%
G01*
G04 APERTURE LIST*
G04 Aperture macros list*
%AMRoundRect*
0 Rectangle with rounded corners*
0 $1 Rounding radius*
0 $2 $3 $4 $5 $6 $7 $8 $9 X,Y pos of 4 corners*
0 Add a 4 corners polygon primitive as box body*
4,1,4,$2,$3,$4,$5,$6,$7,$8,$9,$2,$3,0*
0 Add four circle primitives for the rounded corners*
1,1,$1+$1,$2,$3*
1,1,$1+$1,$4,$5*
1,1,$1+$1,$6,$7*
1,1,$1+$1,$8,$9*
0 Add four rect primitives between the rounded corners*
20,1,$1+$1,$2,$3,$4,$5,0*
20,1,$1+$1,$4,$5,$6,$7,0*
20,1,$1+$1,$6,$7,$8,$9,0*
20,1,$1+$1,$8,$9,$2,$3,0*%
G04 Aperture macros list end*
%ADD10RoundRect,0.020000X0.380000X0.180000X-0.380000X0.180000X-0.380000X-0.180000X0.380000X-0.180000X0*%
%ADD11RoundRect,0.243750X-0.456250X0.243750X-0.456250X-0.243750X0.456250X-0.243750X0.456250X0.243750X0*%
%ADD12R,1.200000X1.800000*%
%ADD13RoundRect,0.243750X0.456250X-0.243750X0.456250X0.243750X-0.456250X0.243750X-0.456250X-0.243750X0*%
%ADD14RoundRect,0.218750X-0.256250X0.218750X-0.256250X-0.218750X0.256250X-0.218750X0.256250X0.218750X0*%
%ADD15RoundRect,0.218750X0.218750X0.256250X-0.218750X0.256250X-0.218750X-0.256250X0.218750X-0.256250X0*%
%ADD16RoundRect,0.218750X0.256250X-0.218750X0.256250X0.218750X-0.256250X0.218750X-0.256250X-0.218750X0*%
%ADD17RoundRect,0.147500X0.147500X0.172500X-0.147500X0.172500X-0.147500X-0.172500X0.147500X-0.172500X0*%
%ADD18R,0.900000X0.800000*%
%ADD19RoundRect,0.243750X0.243750X0.456250X-0.243750X0.456250X-0.243750X-0.456250X0.243750X-0.456250X0*%
%ADD20R,1.100000X0.600000*%
%ADD21RoundRect,0.147500X0.172500X-0.147500X0.172500X0.147500X-0.172500X0.147500X-0.172500X-0.147500X0*%
%ADD22R,1.450000X0.300000*%
%ADD23R,1.450000X0.250000*%
%ADD24RoundRect,0.243750X-0.243750X-0.456250X0.243750X-0.456250X0.243750X0.456250X-0.243750X0.456250X0*%
%ADD25C,0.394000*%
%ADD26RoundRect,0.150000X-0.150000X0.725000X-0.150000X-0.725000X0.150000X-0.725000X0.150000X0.725000X0*%
%ADD27R,1.400000X1.200000*%
%ADD28R,1.400000X1.000000*%
%ADD29R,0.730000X0.730000*%
%ADD30O,0.300000X0.750000*%
%ADD31O,0.750000X0.300000*%
%ADD32R,0.660000X0.730000*%
%ADD33R,0.630000X0.450000*%
%ADD34R,0.700000X0.450000*%
%ADD35R,0.250000X0.650000*%
%ADD36R,0.800000X0.300000*%
%ADD37RoundRect,0.147500X-0.172500X0.147500X-0.172500X-0.147500X0.172500X-0.147500X0.172500X0.147500X0*%
%ADD38R,1.193800X0.508000*%
%ADD39RoundRect,0.218750X-0.218750X-0.256250X0.218750X-0.256250X0.218750X0.256250X-0.218750X0.256250X0*%
G04 APERTURE END LIST*
D10*
%TO.C,U3*%
X75800000Y-93500000D03*
X75800000Y-94300000D03*
X75800000Y-95100000D03*
X75800000Y-95900000D03*
X79800000Y-95900000D03*
X79800000Y-95100000D03*
X79800000Y-94300000D03*
X79800000Y-93500000D03*
%TD*%
D11*
%TO.C,C14*%
X104000000Y-100462500D03*
X104000000Y-102337500D03*
%TD*%
D12*
%TO.C,Y1*%
X83240000Y-107297500D03*
X83240000Y-110697500D03*
X85440000Y-110697500D03*
X85440000Y-107297500D03*
%TD*%
D13*
%TO.C,F1*%
X62800000Y-83308892D03*
X62800000Y-81433892D03*
%TD*%
D14*
%TO.C,C3*%
X77925000Y-84095000D03*
X77925000Y-85670000D03*
%TD*%
D15*
%TO.C,C22*%
X82287500Y-100000000D03*
X80712500Y-100000000D03*
%TD*%
D14*
%TO.C,C6*%
X87800000Y-86212500D03*
X87800000Y-87787500D03*
%TD*%
D15*
%TO.C,C18*%
X79414134Y-101914394D03*
X77839134Y-101914394D03*
%TD*%
D16*
%TO.C,C24*%
X85500000Y-97287500D03*
X85500000Y-95712500D03*
%TD*%
D17*
%TO.C,R14*%
X107685000Y-105000000D03*
X106715000Y-105000000D03*
%TD*%
D18*
%TO.C,Q1*%
X69400000Y-82871392D03*
X69400000Y-84771392D03*
X71400000Y-83821392D03*
%TD*%
D14*
%TO.C,C13*%
X102200000Y-100412500D03*
X102200000Y-101987500D03*
%TD*%
%TO.C,C2*%
X75925000Y-83900000D03*
X75925000Y-85475000D03*
%TD*%
D16*
%TO.C,C15*%
X103700000Y-98887500D03*
X103700000Y-97312500D03*
%TD*%
D19*
%TO.C,FB2*%
X97437500Y-86000000D03*
X95562500Y-86000000D03*
%TD*%
D18*
%TO.C,D5*%
X76600000Y-107450000D03*
X76600000Y-105550000D03*
X74600000Y-106500000D03*
%TD*%
D20*
%TO.C,Y2*%
X85500000Y-100200000D03*
X85500000Y-98800000D03*
%TD*%
D14*
%TO.C,C7*%
X89800000Y-86212500D03*
X89800000Y-87787500D03*
%TD*%
D15*
%TO.C,C12*%
X97287500Y-91700000D03*
X95712500Y-91700000D03*
%TD*%
D14*
%TO.C,R7*%
X68202500Y-94010000D03*
X68202500Y-95585000D03*
%TD*%
D16*
%TO.C,C23*%
X84000000Y-97287500D03*
X84000000Y-95712500D03*
%TD*%
D21*
%TO.C,D2*%
X70702500Y-93282500D03*
X70702500Y-92312500D03*
%TD*%
D15*
%TO.C,R11*%
X93487500Y-89400000D03*
X91912500Y-89400000D03*
%TD*%
D14*
%TO.C,C20*%
X81000000Y-107212500D03*
X81000000Y-108787500D03*
%TD*%
D22*
%TO.C,USB_DFP1*%
X60810182Y-105900000D03*
X60810182Y-106700000D03*
D23*
X60810182Y-108050000D03*
X60810182Y-109050000D03*
X60810182Y-109550000D03*
X60810182Y-110550000D03*
D22*
X60810182Y-111900000D03*
X60810182Y-112700000D03*
X60810182Y-112400000D03*
X60810182Y-111600000D03*
D23*
X60810182Y-111050000D03*
X60810182Y-110050000D03*
X60810182Y-108550000D03*
X60810182Y-107550000D03*
D22*
X60810182Y-107000000D03*
X60810182Y-106200000D03*
%TD*%
D24*
%TO.C,L1*%
X90362500Y-91400000D03*
X92237500Y-91400000D03*
%TD*%
D14*
%TO.C,C5*%
X86000000Y-86212500D03*
X86000000Y-87787500D03*
%TD*%
D15*
%TO.C,C17*%
X89787500Y-107272054D03*
X88212500Y-107272054D03*
%TD*%
D22*
%TO.C,USB_UFP1*%
X60814810Y-86851600D03*
X60814810Y-87651600D03*
D23*
X60814810Y-89001600D03*
X60814810Y-90001600D03*
X60814810Y-90501600D03*
X60814810Y-91501600D03*
D22*
X60814810Y-92851600D03*
X60814810Y-93651600D03*
X60814810Y-93351600D03*
X60814810Y-92551600D03*
D23*
X60814810Y-92001600D03*
X60814810Y-91001600D03*
X60814810Y-89501600D03*
X60814810Y-88501600D03*
D22*
X60814810Y-87951600D03*
X60814810Y-87151600D03*
%TD*%
D25*
%TO.C,IC1*%
X99200000Y-94300000D03*
X99200000Y-95100000D03*
X99200000Y-95900000D03*
X99200000Y-96700000D03*
X99200000Y-97500000D03*
X99200000Y-98300000D03*
X99200000Y-99100000D03*
X99200000Y-99900000D03*
X99200000Y-100700000D03*
X99200000Y-101500000D03*
X99200000Y-102300000D03*
X99200000Y-103100000D03*
X99200000Y-103900000D03*
X99200000Y-104700000D03*
X98400000Y-94300000D03*
X98400000Y-95100000D03*
X98400000Y-95900000D03*
X98400000Y-96700000D03*
X98400000Y-97500000D03*
X98400000Y-98300000D03*
X98400000Y-99100000D03*
X98400000Y-99900000D03*
X98400000Y-100700000D03*
X98400000Y-101500000D03*
X98400000Y-102300000D03*
X98400000Y-103100000D03*
X98400000Y-103900000D03*
X98400000Y-104700000D03*
X97600000Y-94300000D03*
X97600000Y-95100000D03*
X97600000Y-95900000D03*
X97600000Y-96700000D03*
X97600000Y-97500000D03*
X97600000Y-98300000D03*
X97600000Y-99100000D03*
X97600000Y-99900000D03*
X97600000Y-100700000D03*
X97600000Y-101500000D03*
X97600000Y-102300000D03*
X97600000Y-103100000D03*
X97600000Y-103900000D03*
X97600000Y-104700000D03*
X96800000Y-94300000D03*
X96800000Y-95100000D03*
X96800000Y-95900000D03*
X96800000Y-96700000D03*
X96800000Y-97500000D03*
X96800000Y-98300000D03*
X96800000Y-99100000D03*
X96800000Y-99900000D03*
X96800000Y-100700000D03*
X96800000Y-101500000D03*
X96800000Y-102300000D03*
X96800000Y-103100000D03*
X96800000Y-103900000D03*
X96800000Y-104700000D03*
X96000000Y-94300000D03*
X96000000Y-95100000D03*
X96000000Y-95900000D03*
X96000000Y-96700000D03*
X96000000Y-97500000D03*
X96000000Y-98300000D03*
X96000000Y-99100000D03*
X96000000Y-99900000D03*
X96000000Y-100700000D03*
X96000000Y-101500000D03*
X96000000Y-102300000D03*
X96000000Y-103100000D03*
X96000000Y-103900000D03*
X96000000Y-104700000D03*
X95200000Y-94300000D03*
X95200000Y-95100000D03*
X95200000Y-95900000D03*
X95200000Y-96700000D03*
X95200000Y-97500000D03*
X95200000Y-98300000D03*
X95200000Y-99100000D03*
X95200000Y-99900000D03*
X95200000Y-100700000D03*
X95200000Y-101500000D03*
X95200000Y-102300000D03*
X95200000Y-103100000D03*
X95200000Y-103900000D03*
X95200000Y-104700000D03*
X94400000Y-94300000D03*
X94400000Y-95100000D03*
X94400000Y-95900000D03*
X94400000Y-96700000D03*
X94400000Y-97500000D03*
X94400000Y-98300000D03*
X94400000Y-99100000D03*
X94400000Y-99900000D03*
X94400000Y-100700000D03*
X94400000Y-101500000D03*
X94400000Y-102300000D03*
X94400000Y-103100000D03*
X94400000Y-103900000D03*
X94400000Y-104700000D03*
X93600000Y-94300000D03*
X93600000Y-95100000D03*
X93600000Y-95900000D03*
X93600000Y-96700000D03*
X93600000Y-97500000D03*
X93600000Y-98300000D03*
X93600000Y-99100000D03*
X93600000Y-99900000D03*
X93600000Y-100700000D03*
X93600000Y-101500000D03*
X93600000Y-102300000D03*
X93600000Y-103100000D03*
X93600000Y-103900000D03*
X93600000Y-104700000D03*
X92800000Y-94300000D03*
X92800000Y-95100000D03*
X92800000Y-95900000D03*
X92800000Y-96700000D03*
X92800000Y-97500000D03*
X92800000Y-98300000D03*
X92800000Y-99100000D03*
X92800000Y-99900000D03*
X92800000Y-100700000D03*
X92800000Y-101500000D03*
X92800000Y-102300000D03*
X92800000Y-103100000D03*
X92800000Y-103900000D03*
X92800000Y-104700000D03*
X92000000Y-94300000D03*
X92000000Y-95100000D03*
X92000000Y-95900000D03*
X92000000Y-96700000D03*
X92000000Y-97500000D03*
X92000000Y-98300000D03*
X92000000Y-99100000D03*
X92000000Y-99900000D03*
X92000000Y-100700000D03*
X92000000Y-101500000D03*
X92000000Y-102300000D03*
X92000000Y-103100000D03*
X92000000Y-103900000D03*
X92000000Y-104700000D03*
X91200000Y-94300000D03*
X91200000Y-95100000D03*
X91200000Y-95900000D03*
X91200000Y-96700000D03*
X91200000Y-97500000D03*
X91200000Y-98300000D03*
X91200000Y-99100000D03*
X91200000Y-99900000D03*
X91200000Y-100700000D03*
X91200000Y-101500000D03*
X91200000Y-102300000D03*
X91200000Y-103100000D03*
X91200000Y-103900000D03*
X91200000Y-104700000D03*
X90400000Y-94300000D03*
X90400000Y-95100000D03*
X90400000Y-95900000D03*
X90400000Y-96700000D03*
X90400000Y-97500000D03*
X90400000Y-98300000D03*
X90400000Y-99100000D03*
X90400000Y-99900000D03*
X90400000Y-100700000D03*
X90400000Y-101500000D03*
X90400000Y-102300000D03*
X90400000Y-103100000D03*
X90400000Y-103900000D03*
X90400000Y-104700000D03*
X89600000Y-94300000D03*
X89600000Y-95100000D03*
X89600000Y-95900000D03*
X89600000Y-96700000D03*
X89600000Y-97500000D03*
X89600000Y-98300000D03*
X89600000Y-99100000D03*
X89600000Y-99900000D03*
X89600000Y-100700000D03*
X89600000Y-101500000D03*
X89600000Y-102300000D03*
X89600000Y-103100000D03*
X89600000Y-103900000D03*
X89600000Y-104700000D03*
X88800000Y-94300000D03*
X88800000Y-95100000D03*
X88800000Y-95900000D03*
X88800000Y-96700000D03*
X88800000Y-97500000D03*
X88800000Y-98300000D03*
X88800000Y-99100000D03*
X88800000Y-99900000D03*
X88800000Y-100700000D03*
X88800000Y-101500000D03*
X88800000Y-102300000D03*
X88800000Y-103100000D03*
X88800000Y-103900000D03*
X88800000Y-104700000D03*
%TD*%
D26*
%TO.C,U2*%
X72107500Y-99222500D03*
X70837500Y-99222500D03*
X69567500Y-99222500D03*
X68297500Y-99222500D03*
X68297500Y-104372500D03*
X69567500Y-104372500D03*
X70837500Y-104372500D03*
X72107500Y-104372500D03*
%TD*%
D14*
%TO.C,C4*%
X84300000Y-86212500D03*
X84300000Y-87787500D03*
%TD*%
D15*
%TO.C,R5*%
X56387500Y-82900000D03*
X54812500Y-82900000D03*
%TD*%
%TO.C,R13*%
X67187682Y-111300000D03*
X65612682Y-111300000D03*
%TD*%
%TO.C,C10*%
X97287500Y-88000000D03*
X95712500Y-88000000D03*
%TD*%
%TO.C,R9*%
X57997682Y-101850000D03*
X56422682Y-101850000D03*
%TD*%
%TO.C,R16*%
X107187500Y-97900000D03*
X105612500Y-97900000D03*
%TD*%
D14*
%TO.C,C25*%
X83500000Y-101712500D03*
X83500000Y-103287500D03*
%TD*%
D27*
%TO.C,Di3*%
X71810182Y-110570000D03*
D28*
X71810182Y-108850000D03*
X69610182Y-108850000D03*
X69610182Y-110750000D03*
%TD*%
D16*
%TO.C,C16*%
X102200000Y-98887500D03*
X102200000Y-97312500D03*
%TD*%
D14*
%TO.C,R1*%
X65000000Y-85464100D03*
X65000000Y-87039100D03*
%TD*%
D29*
%TO.C,U4*%
X95050000Y-110550000D03*
X95950000Y-110550000D03*
X95050000Y-109650000D03*
X95950000Y-109650000D03*
D30*
X94750000Y-111575000D03*
X95250000Y-111575000D03*
X95750000Y-111575000D03*
X96250000Y-111575000D03*
D31*
X96975000Y-110850000D03*
X96975000Y-110350000D03*
X96975000Y-109850000D03*
X96975000Y-109350000D03*
D30*
X96250000Y-108625000D03*
X95750000Y-108625000D03*
X95250000Y-108625000D03*
X94750000Y-108625000D03*
D31*
X94025000Y-109350000D03*
X94025000Y-109850000D03*
X94025000Y-110350000D03*
X94025000Y-110850000D03*
%TD*%
D17*
%TO.C,D3*%
X107685000Y-106500000D03*
X106715000Y-106500000D03*
%TD*%
D19*
%TO.C,C9*%
X90132025Y-110678131D03*
X88257025Y-110678131D03*
%TD*%
D15*
%TO.C,C21*%
X82087500Y-97700000D03*
X80512500Y-97700000D03*
%TD*%
D14*
%TO.C,C19*%
X86600000Y-114312500D03*
X86600000Y-115887500D03*
%TD*%
D32*
%TO.C,NCP692*%
X80575000Y-84134000D03*
X80575000Y-85000000D03*
X80575000Y-85866000D03*
X81425000Y-84134000D03*
X81425000Y-85000000D03*
X81425000Y-85866000D03*
D33*
X79660000Y-84050000D03*
X79660000Y-85000000D03*
X79660000Y-85950000D03*
X82340000Y-85950000D03*
X82340000Y-85000000D03*
X82340000Y-84050000D03*
%TD*%
D14*
%TO.C,R6*%
X72202500Y-94010000D03*
X72202500Y-95585000D03*
%TD*%
D19*
%TO.C,C11*%
X97437500Y-89800000D03*
X95562500Y-89800000D03*
%TD*%
D14*
%TO.C,C1*%
X73925000Y-83900000D03*
X73925000Y-85475000D03*
%TD*%
D34*
%TO.C,U1*%
X78900000Y-81950000D03*
D35*
X78100000Y-82100000D03*
D36*
X78900000Y-81100000D03*
D34*
X78900000Y-80250000D03*
X77300000Y-80250000D03*
D36*
X77300000Y-81100000D03*
D35*
X78100000Y-80100000D03*
D34*
X77300000Y-81950000D03*
%TD*%
D14*
%TO.C,C26*%
X85000000Y-101712500D03*
X85000000Y-103287500D03*
%TD*%
D15*
%TO.C,R3*%
X74787500Y-82000000D03*
X73212500Y-82000000D03*
%TD*%
D37*
%TO.C,R10*%
X94850000Y-113765000D03*
X94850000Y-114735000D03*
%TD*%
D16*
%TO.C,R2*%
X65000000Y-94826600D03*
X65000000Y-93251600D03*
%TD*%
%TO.C,R15*%
X79000000Y-108712500D03*
X79000000Y-107137500D03*
%TD*%
D27*
%TO.C,D1*%
X67688814Y-90971600D03*
D28*
X67688814Y-89251600D03*
X65488814Y-89251600D03*
X65488814Y-91151600D03*
%TD*%
D37*
%TO.C,R8*%
X70702500Y-94812500D03*
X70702500Y-95782500D03*
%TD*%
D11*
%TO.C,FB1*%
X65300000Y-81433892D03*
X65300000Y-83308892D03*
%TD*%
D21*
%TO.C,D4*%
X93800000Y-114685000D03*
X93800000Y-113715000D03*
%TD*%
D38*
%TO.C,PROG1*%
X108243400Y-113695000D03*
X112256600Y-113695000D03*
X108243400Y-115305000D03*
X112256600Y-115305000D03*
%TD*%
D15*
%TO.C,R12*%
X67187682Y-108110000D03*
X65612682Y-108110000D03*
%TD*%
D39*
%TO.C,R4*%
X80212500Y-88000000D03*
X81787500Y-88000000D03*
%TD*%
D15*
%TO.C,C8*%
X89787195Y-108862547D03*
X88212195Y-108862547D03*
%TD*%
M02*
